<svg xmlns="http://www.w3.org/2000/svg" viewBox="0 0 71 50">
  <path d="M40.8 50H30.2a.7.7 0 01-.7-.8s.2-1.7-.8-1.9A529.4 529.4 0 00.2 49.6a.7.7 0 01-.2-.5V2.7c0-.4.3-.7.7-.7h1.6c.4 0 .7.3.7.7 0 .4-.3.7-.7.7h-.9v44.9c5-.5 25.8-2.7 27.5-2.4 1.5.3 2 1.6 2 2.7h9.2c0-1.1.5-2.4 2-2.7a470 470 0 0127.5 2.4V3.4h-.9a.7.7 0 01-.7-.7c0-.4.3-.7.7-.7h1.6c.4 0 .7.3.7.7v46.4a.7.7 0 01-.8.7 527 527 0 00-27.9-2.5c-1 .2-.8 1.9-.8 1.9a.7.7 0 01-.7.8"/>
  <path d="M66.3 44H66c-.1 0-10.9-3-18-3-5.8 0-8.6 2-8.7 2-.3.3-.7.2-1-.1a.7.7 0 01.2-1c.1-.1 3.2-2.4 9.4-2.4s14.7 2 17.5 2.8L65 3a119 119 0 00-15.8-1.4c-9 0-12.9 4.8-13 4.8-.2.3-.6.4-1 .1a.7.7 0 010-1c.1-.2 4.4-5.4 14-5.4 7.3 0 16.6 1.5 16.7 1.5.3.1.6.4.6.8l.5 41c0 .2-.1.4-.3.5l-.4.2M35.3 45l-.4-.1c-.1 0-5.9-4-11.7-4-7.3 0-18.2 3-18.3 3h-.6a.7.7 0 01-.3-.6l.5-41c0-.4.3-.7.7-.8C5.2 1.5 14.7 0 22 0c6.3 0 9 1.4 11 2.8.3.3.4.7.2 1-.3.4-.7.4-1 .2C30 2.5 27.5 1.5 22 1.5c-6.2 0-13.8 1-16 1.4l-.5 39.4a83 83 0 0117.7-2.8c6.3 0 12.2 4 12.5 4.2a.7.7 0 01-.4 1.3"/>
  <path d="M35.5 45c-.3 0-.5-.3-.5-.7V5.7c0-.4.2-.7.5-.7s.5.3.5.7v38.6c0 .4-.2.7-.5.7M38.7 12l-.4-.1c-.3-.2-.4-.6-.2-1C38.3 11 41.5 7 51 7 55.5 7 62 8 62.4 8c.4 0 .7.4.6.7 0 .4-.5.6-.8.6-.1 0-6.8-1-11.3-1-8.7 0-11.6 3.4-11.6 3.4-.1.2-.4.3-.6.3M38.7 19c-.2 0-.3 0-.5-.2a.6.6 0 010-.9c.2-.2 4.3-3.9 13.6-3.9 4.6 0 10.4 1.2 10.6 1.2.4 0 .7.4.6.8-.1.3-.5.6-.9.5 0 0-5.8-1.2-10.3-1.2-8.7 0-12.5 3.5-12.6 3.5l-.5.2M38.7 25c-.2 0-.3 0-.5-.2a.6.6 0 010-.9c.2-.2 4.3-3.9 13.6-3.9 4.6 0 10.4 1.4 10.7 1.5.4.1.6.5.5.8-.1.3-.5.6-1 .5 0 0-5.8-1.5-10.2-1.5-8.7 0-12.5 3.5-12.6 3.5l-.5.2M38.7 31c-.2 0-.3 0-.5-.2a.6.6 0 010-.9c.2-.2 4.3-3.9 13.6-3.9 4.6 0 10.4 1.5 10.7 1.6.4 0 .6.4.5.8-.1.3-.5.5-1 .4 0 0-5.8-1.5-10.2-1.5-8.7 0-12.5 3.5-12.6 3.5l-.5.2M38.7 37l-.4-.1c-.3-.2-.4-.6-.2-1 .2 0 3.4-3.9 12.8-3.9 4.6 0 11.3 2.1 11.6 2.2.4.1.6.5.5.9-.2.3-.6.5-1 .3 0 0-6.7-2.1-11.1-2.1-8.7 0-11.6 3.4-11.6 3.4-.1.2-.4.3-.6.3"/>
</svg>
