<svg xmlns="http://www.w3.org/2000/svg" width="841.896" height="841.896" viewBox="174.326 -0.002 841.896 841.896">
  <path d="M861.51 201.011c.006 26.902-21.798 48.714-48.699 48.72s-48.715-21.798-48.72-48.7c-.006-26.902 21.798-48.714 48.699-48.72h.021c26.893.005 48.694 21.806 48.699 48.7zm154.713 219.935l-.01.613-2.767 176.607c-1.495 132.445-108.498 239.448-240.942 240.943l-177.229 2.784-.613-.013-176.607-2.758C285.608 837.627 178.602 730.626 177.1 598.18l-2.772-177.235.013-.613 2.758-176.614C178.603 111.274 285.607 4.275 418.052 2.776L595.275-.002l.613.012 176.608 2.758c132.442 1.5 239.443 108.5 240.942 240.943l2.785 177.235zm-78.4 0l-2.755-175.997c-1.017-90.038-73.759-162.781-163.797-163.799l-175.996-2.749-175.996 2.749c-90.038 1.02-162.779 73.761-163.801 163.799l-2.748 175.997 2.748 175.996c1.018 90.039 73.762 162.782 163.801 163.799l175.996 2.748 175.996-2.748c90.04-1.015 162.783-73.759 163.797-163.799l2.755-175.996zm-126.381 0c0 119.387-96.782 216.169-216.169 216.169s-216.169-96.782-216.169-216.169 96.782-216.169 216.169-216.169h.002c119.331.135 216.033 96.838 216.167 216.169zm-78.391 0c0-76.093-61.686-137.778-137.778-137.778s-137.778 61.686-137.778 137.778 61.686 137.778 137.778 137.778h.002c76.056-.089 137.688-61.723 137.774-137.778h.002z"/>
</svg>
