<?xml version="1.0" encoding="utf-8"?><svg xmlns="http://www.w3.org/2000/svg" xmlns:xlink="http://www.w3.org/1999/xlink"><symbol viewBox="0 0 24 31" id="arrow-bottom" xmlns="http://www.w3.org/2000/svg"><path d="M20.8 17l-7.5 7.4V0H10v24.4L2.4 17 0 19.4 11.6 31l11.6-11.6z"/></symbol><symbol viewBox="0 0 32 25" id="arrow-left" xmlns="http://www.w3.org/2000/svg"><path d="M14.1 21.7l-7.4-7.5H31v-3.4H6.7L14 3.3 11.7 1 .1 12.5l11.6 11.6z"/></symbol><symbol viewBox="0 0 32 25" id="arrow-right" xmlns="http://www.w3.org/2000/svg"><path d="M17 3.3l7.5 7.5H.1v3.4h24.4l-7.4 7.5 2.4 2.4 11.6-11.6L19.5.9z"/></symbol><symbol viewBox="0 0 24 31" id="arrow-top" xmlns="http://www.w3.org/2000/svg"><path d="M23.2 11.6L11.6 0 0 11.6 2.4 14 10 6.6V31h3.4V6.6l7.5 7.4z"/></symbol><symbol viewBox="0 0 71 50" id="book" xmlns="http://www.w3.org/2000/svg"><path d="M40.8 50H30.2a.7.7 0 01-.7-.8s.2-1.7-.8-1.9A529.4 529.4 0 00.2 49.6a.7.7 0 01-.2-.5V2.7c0-.4.3-.7.7-.7h1.6c.4 0 .7.3.7.7 0 .4-.3.7-.7.7h-.9v44.9c5-.5 25.8-2.7 27.5-2.4 1.5.3 2 1.6 2 2.7h9.2c0-1.1.5-2.4 2-2.7a470 470 0 0127.5 2.4V3.4h-.9a.7.7 0 01-.7-.7c0-.4.3-.7.7-.7h1.6c.4 0 .7.3.7.7v46.4a.7.7 0 01-.8.7 527 527 0 00-27.9-2.5c-1 .2-.8 1.9-.8 1.9a.7.7 0 01-.7.8"/><path d="M66.3 44H66c-.1 0-10.9-3-18-3-5.8 0-8.6 2-8.7 2-.3.3-.7.2-1-.1a.7.7 0 01.2-1c.1-.1 3.2-2.4 9.4-2.4s14.7 2 17.5 2.8L65 3a119 119 0 00-15.8-1.4c-9 0-12.9 4.8-13 4.8-.2.3-.6.4-1 .1a.7.7 0 010-1c.1-.2 4.4-5.4 14-5.4 7.3 0 16.6 1.5 16.7 1.5.3.1.6.4.6.8l.5 41c0 .2-.1.4-.3.5l-.4.2m-31 .9l-.4-.1c-.1 0-5.9-4-11.7-4-7.3 0-18.2 3-18.3 3h-.6a.7.7 0 01-.3-.6l.5-41c0-.4.3-.7.7-.8C5.2 1.5 14.7 0 22 0c6.3 0 9 1.4 11 2.8.3.3.4.7.2 1-.3.4-.7.4-1 .2C30 2.5 27.5 1.5 22 1.5c-6.2 0-13.8 1-16 1.4l-.5 39.4a83 83 0 0117.7-2.8c6.3 0 12.2 4 12.5 4.2a.7.7 0 01-.4 1.3"/><path d="M35.5 45c-.3 0-.5-.3-.5-.7V5.7c0-.4.2-.7.5-.7s.5.3.5.7v38.6c0 .4-.2.7-.5.7m3.2-33l-.4-.1c-.3-.2-.4-.6-.2-1C38.3 11 41.5 7 51 7c4.5 0 11 1 11.4 1 .4 0 .7.4.6.7 0 .4-.5.6-.8.6-.1 0-6.8-1-11.3-1-8.7 0-11.6 3.4-11.6 3.4-.1.2-.4.3-.6.3m0 7c-.2 0-.3 0-.5-.2a.6.6 0 010-.9c.2-.2 4.3-3.9 13.6-3.9 4.6 0 10.4 1.2 10.6 1.2.4 0 .7.4.6.8-.1.3-.5.6-.9.5 0 0-5.8-1.2-10.3-1.2-8.7 0-12.5 3.5-12.6 3.5l-.5.2m0 6c-.2 0-.3 0-.5-.2a.6.6 0 010-.9c.2-.2 4.3-3.9 13.6-3.9 4.6 0 10.4 1.4 10.7 1.5.4.1.6.5.5.8-.1.3-.5.6-1 .5 0 0-5.8-1.5-10.2-1.5-8.7 0-12.5 3.5-12.6 3.5l-.5.2m0 6c-.2 0-.3 0-.5-.2a.6.6 0 010-.9c.2-.2 4.3-3.9 13.6-3.9 4.6 0 10.4 1.5 10.7 1.6.4 0 .6.4.5.8-.1.3-.5.5-1 .4 0 0-5.8-1.5-10.2-1.5-8.7 0-12.5 3.5-12.6 3.5l-.5.2m0 6l-.4-.1c-.3-.2-.4-.6-.2-1 .2 0 3.4-3.9 12.8-3.9 4.6 0 11.3 2.1 11.6 2.2.4.1.6.5.5.9-.2.3-.6.5-1 .3 0 0-6.7-2.1-11.1-2.1-8.7 0-11.6 3.4-11.6 3.4-.1.2-.4.3-.6.3"/></symbol><symbol viewBox="0 0 17.9 17.3" id="check" xmlns="http://www.w3.org/2000/svg"><path d="M6.2 17.3L0 11.1 2.1 9l3.8 3.7L15.5 0l2.4 1.8z"/></symbol><symbol viewBox="0 0 24 24" id="chevron-left" xmlns="http://www.w3.org/2000/svg"><path d="M15 19c-.3 0-.5-.1-.7-.3l-6-6c-.4-.4-.4-1 0-1.4l6-6c.4-.4 1-.4 1.4 0s.4 1 0 1.4L10.4 12l5.3 5.3c.4.4.4 1 0 1.4-.2.2-.4.3-.7.3z"/></symbol><symbol viewBox="0 0 24 24" id="chevron-right" xmlns="http://www.w3.org/2000/svg"><path d="M9 19c-.3 0-.5-.1-.7-.3-.4-.4-.4-1 0-1.4l5.3-5.3-5.3-5.3c-.4-.4-.4-1 0-1.4s1-.4 1.4 0l6 6c.4.4.4 1 0 1.4l-6 6c-.2.2-.4.3-.7.3z"/></symbol><symbol viewBox="0 0 357 357" id="close" xmlns="http://www.w3.org/2000/svg"><path d="M357 35.7L321.3 0 178.5 142.8 35.7 0 0 35.7l142.8 142.8L0 321.3 35.7 357l142.8-142.8L321.3 357l35.7-35.7-142.8-142.8z"/></symbol><symbol viewBox="0 0 512 512" id="email" xmlns="http://www.w3.org/2000/svg"><path d="M467 80.6H45a45 45 0 00-45 45v260.8a45 45 0 0045 45h422a45 45 0 0045-45V125.6a45 45 0 00-45-45zm-5.9 30l-6 5-181.2 151a27.9 27.9 0 01-35.8 0L57 115.6l-6-5h410zM30 132.3l147.7 123L30 353.4V132.3zm437 269H45a15 15 0 01-14.7-12l171.4-114 17.2 14.3a57.8 57.8 0 0074.2 0l17.2-14.3 171.4 114a15 15 0 01-14.7 12zm15-47.8l-147.7-98.2 147.7-123v221.2z"/></symbol><symbol viewBox="0 0 96.124 96.123" id="facebook" xmlns="http://www.w3.org/2000/svg"><path d="M72.089.02L59.624 0C45.62 0 36.57 9.285 36.57 23.656v10.907H24.037a1.96 1.96 0 00-1.96 1.961v15.803a1.96 1.96 0 001.96 1.96H36.57v39.876a1.96 1.96 0 001.96 1.96h16.352a1.96 1.96 0 001.96-1.96V54.287h14.654a1.96 1.96 0 001.96-1.96l.006-15.803a1.963 1.963 0 00-1.961-1.961H56.842v-9.246c0-4.444 1.059-6.7 6.848-6.7l8.397-.003a1.96 1.96 0 001.959-1.96V1.98A1.96 1.96 0 0072.089.02z"/></symbol><symbol viewBox="0 0 491.858 491.858" id="google" xmlns="http://www.w3.org/2000/svg"><path d="M377.472 224.957H201.319v58.718H308.79c-16.032 51.048-63.714 88.077-120.055 88.077-69.492 0-125.823-56.335-125.823-125.824 0-69.492 56.333-125.823 125.823-125.823 34.994 0 66.645 14.289 89.452 37.346l42.622-46.328c-34.04-33.355-80.65-53.929-132.074-53.929C84.5 57.193 0 141.693 0 245.928s84.5 188.737 188.736 188.737c91.307 0 171.248-64.844 188.737-150.989v-58.718l-.001-.001zm114.386-.1h-36.031v-36.031h-30.886v36.031H388.91v30.883h36.031v36.032h30.886V255.74h36.031z"/></symbol><symbol viewBox="174.326 -0.002 841.896 841.896" id="instagram" xmlns="http://www.w3.org/2000/svg"><path d="M861.51 201.011c.006 26.902-21.798 48.714-48.699 48.72s-48.715-21.798-48.72-48.7c-.006-26.902 21.798-48.714 48.699-48.72h.021c26.893.005 48.694 21.806 48.699 48.7zm154.713 219.935l-.01.613-2.767 176.607c-1.495 132.445-108.498 239.448-240.942 240.943l-177.229 2.784-.613-.013-176.607-2.758C285.608 837.627 178.602 730.626 177.1 598.18l-2.772-177.235.013-.613 2.758-176.614C178.603 111.274 285.607 4.275 418.052 2.776L595.275-.002l.613.012 176.608 2.758c132.442 1.5 239.443 108.5 240.942 240.943l2.785 177.235zm-78.4 0l-2.755-175.997c-1.017-90.038-73.759-162.781-163.797-163.799l-175.996-2.749-175.996 2.749c-90.038 1.02-162.779 73.761-163.801 163.799l-2.748 175.997 2.748 175.996c1.018 90.039 73.762 162.782 163.801 163.799l175.996 2.748 175.996-2.748c90.04-1.015 162.783-73.759 163.797-163.799l2.755-175.996zm-126.381 0c0 119.387-96.782 216.169-216.169 216.169s-216.169-96.782-216.169-216.169 96.782-216.169 216.169-216.169h.002c119.331.135 216.033 96.838 216.167 216.169zm-78.391 0c0-76.093-61.686-137.778-137.778-137.778s-137.778 61.686-137.778 137.778 61.686 137.778 137.778 137.778h.002c76.056-.089 137.688-61.723 137.774-137.778h.002z"/></symbol><symbol viewBox="0 0 76 76" id="linkedin" xmlns="http://www.w3.org/2000/svg"><path d="M70.4 0H5.6C2.5 0 0 2.4 0 5.5v65.1c0 3 2.5 5.4 5.6 5.4h64.8c3.1 0 5.6-2.4 5.6-5.4V5.4c0-3-2.5-5.4-5.6-5.4zM23 63H12V29h11v34zm-5.9-39c-3.9 0-6.4-2.6-6.4-5.9 0-3.3 2.6-5.9 6.5-5.9s6.3 2.5 6.4 5.9c0 3.3-2.5 5.9-6.5 5.9zM64 63H53V44.8c0-4.6-1.7-7.7-5.8-7.7-3.1 0-5 2.1-5.8 4.1-.3.8-.4 1.8-.4 2.8v19H29.6s.1-30.8 0-34H41v4.9c1.5-2.3 4.2-5.6 10.1-5.6 7.4 0 12.9 4.9 12.9 15.3V63z"/></symbol><symbol viewBox="0 0 40 40" id="search" xmlns="http://www.w3.org/2000/svg"><path d="M29.2 25l10 9.9-4.3 4.2-10-9.9a16 16 0 114.2-4.2zM16 26a10 10 0 100-20 10 10 0 000 20z"/></symbol><symbol viewBox="0 0 612 612" id="twitter" xmlns="http://www.w3.org/2000/svg"><path d="M612 116.258a250.714 250.714 0 01-72.088 19.772c25.929-15.527 45.777-40.155 55.184-69.411-24.322 14.379-51.169 24.82-79.775 30.48-22.907-24.437-55.49-39.658-91.63-39.658-69.334 0-125.551 56.217-125.551 125.513 0 9.828 1.109 19.427 3.251 28.606-104.326-5.24-196.835-55.223-258.75-131.174-10.823 18.51-16.98 40.078-16.98 63.101 0 43.559 22.181 81.993 55.835 104.479a125.556 125.556 0 01-56.867-15.756v1.568c0 60.806 43.291 111.554 100.693 123.104-10.517 2.83-21.607 4.398-33.08 4.398-8.107 0-15.947-.803-23.634-2.333 15.985 49.907 62.336 86.199 117.253 87.194-42.947 33.654-97.099 53.655-155.916 53.655-10.134 0-20.116-.612-29.944-1.721 55.567 35.681 121.536 56.485 192.438 56.485 230.948 0 357.188-191.291 357.188-357.188l-.421-16.253c24.666-17.593 46.005-39.697 62.794-64.861z"/></symbol><symbol viewBox="0 0 90 90" id="youtube" xmlns="http://www.w3.org/2000/svg"><path d="M70.939 65.832H66l.023-2.869a2.329 2.329 0 012.326-2.318h.315a2.332 2.332 0 012.332 2.318l-.057 2.869zm-18.526-6.148c-1.253 0-2.278.842-2.278 1.873V75.51c0 1.029 1.025 1.869 2.278 1.869 1.258 0 2.284-.84 2.284-1.869V61.557c0-1.032-1.026-1.873-2.284-1.873zM82.5 51.879v26.544C82.5 84.79 76.979 90 70.23 90H19.771C13.02 90 7.5 84.79 7.5 78.423V51.879c0-6.367 5.52-11.578 12.271-11.578H70.23c6.749 0 12.27 5.211 12.27 11.578zM23.137 81.305l-.004-27.961 6.255.002v-4.143l-16.674-.025v4.073l5.205.015v28.039h5.218zm18.75-23.796h-5.215V72.44c0 2.16.131 3.24-.008 3.621-.424 1.158-2.33 2.388-3.073.125-.126-.396-.015-1.591-.017-3.643l-.021-15.034h-5.186l.016 14.798c.004 2.268-.051 3.959.018 4.729.127 1.357.082 2.939 1.341 3.843 2.346 1.69 6.843-.252 7.968-2.668l-.01 3.083 4.188.005-.001-23.79zM58.57 74.607l-.011-12.427c-.004-4.736-3.547-7.572-8.356-3.74l.021-9.239-5.209.008-.025 31.89 4.284-.062.39-1.986c5.473 5.021 8.914 1.58 8.906-4.444zm16.321-1.647l-3.91.021c-.002.155-.008.334-.01.529v2.182c0 1.168-.965 2.119-2.137 2.119h-.766c-1.174 0-2.139-.951-2.139-2.119v-5.739h8.954v-3.37c0-2.463-.063-4.925-.267-6.333-.641-4.454-6.893-5.161-10.051-2.881a5.887 5.887 0 00-2.188 2.945c-.444 1.281-.665 3.031-.665 5.254v7.41c.002 12.318 14.964 10.577 13.179-.018zM54.833 32.732a3.55 3.55 0 001.254 1.584c.56.394 1.276.592 2.134.592.752 0 1.418-.203 1.998-.622.578-.417 1.065-1.04 1.463-1.871l-.099 2.046h5.813V9.74H62.82v19.24a1.907 1.907 0 01-3.811 0V9.74h-4.776v16.674c0 2.124.039 3.54.102 4.258.065.713.229 1.397.498 2.06zM37.217 18.77c0-2.373.198-4.226.591-5.562.396-1.331 1.107-2.401 2.137-3.208 1.027-.811 2.342-1.217 3.941-1.217 1.345 0 2.497.264 3.459.781.967.52 1.713 1.195 2.23 2.028a8 8 0 011.076 2.574c.195.891.291 2.235.291 4.048v6.252c0 2.293-.092 3.98-.271 5.051a8.006 8.006 0 01-1.146 3.004c-.58.924-1.329 1.615-2.237 2.056-.918.445-1.968.663-3.154.663-1.325 0-2.441-.183-3.361-.565-.923-.38-1.636-.953-2.144-1.714-.513-.762-.874-1.69-1.092-2.772-.219-1.081-.323-2.707-.323-4.874l.003-6.545zm4.553 9.82c0 1.4 1.042 2.543 2.311 2.543 1.27 0 2.308-1.143 2.308-2.543V15.43c0-1.398-1.038-2.541-2.308-2.541-1.269 0-2.311 1.143-2.311 2.541v13.16zm-16.088 6.645h5.484l.006-18.96L37.652.033h-5.998l-3.445 12.064L24.715 0h-5.936l6.894 16.284.009 18.951z"/></symbol></svg>