<?xml version="1.0" encoding="UTF-8"?>
<svg width="295px" height="92px" viewBox="0 0 295 92" version="1.1" xmlns="http://www.w3.org/2000/svg" xmlns:xlink="http://www.w3.org/1999/xlink">
    <title>OSU_COB_rgb_2c_white_orange</title>
    <g id="Symbols" stroke="none" stroke-width="1" fill="none" fill-rule="evenodd">
        <g id="footer" transform="translate(-573.000000, -221.000000)" fill-rule="nonzero">
            <g id="OSU_COB_rgb_2c_white_orange" transform="translate(573.000000, 221.000000)">
                <g id="Group">
                    <g transform="translate(79.836242, 20.666667)" fill="#D73F09">
                        <path d="M0.0465711413,9.08666667 C0.0465711413,4.44666667 2.55475975,1.58666667 6.98567119,1.58666667 C11.3899706,1.58666667 13.9048122,4.44666667 13.9048122,9.08666667 C13.9048122,13.7266667 11.3966236,16.5866667 6.98567119,16.5866667 C2.55475975,16.5866667 0.0465711413,13.7266667 0.0465711413,9.08666667 Z M10.212386,9.08666667 C10.212386,4.52 9.20112691,2.77333333 6.98567119,2.77333333 C4.74360339,2.77333333 3.73899734,4.52666667 3.73899734,9.08666667 C3.73899734,13.6266667 4.75025641,15.4 6.98567119,15.4 C9.20112691,15.4 10.212386,13.6266667 10.212386,9.08666667 Z" id="Shape"></path>
                        <path d="M20.8439122,15.5733333 L20.5245673,16.34 L14.51689,16.34 L14.51689,15.6466667 L15.5281491,15.2 L15.5281491,8.46666667 L14.496931,6.84 L14.496931,6.56666667 L18.2159693,5.33333333 L18.7349048,5.33333333 L18.6617216,7.84666667 L18.7615169,7.84666667 C19.2538404,6.58666667 20.2118753,5.33333333 21.8352122,5.33333333 C23.1392042,5.33333333 23.9309136,6.1 23.9309136,7.30666667 C23.9309136,8.41333333 23.1658163,9.10666667 22.2343934,9.10666667 C21.1765632,9.10666667 20.5378733,8.39333333 20.5378733,7.38 C19.9257954,7.65333333 19.3336767,8.22 18.7681699,8.96 L18.7681699,15.1 L20.8439122,15.5733333 Z" id="Path"></path>
                        <path d="M29.9518969,14.5133333 C31.0629512,14.5133333 31.7016412,14.24 32.6131049,13.5533333 L33.0788163,14.0933333 C32.29376,15.8666667 30.7901774,16.5866667 28.694476,16.5866667 C25.8869015,16.5866667 23.6714458,14.7866667 23.6714458,11.1133333 C23.6714458,7.38666667 26.1796344,5.34 29.1601875,5.34 C31.5752338,5.34 33.2451419,6.74666667 33.2451419,9.33333333 C33.2451419,9.72666667 33.2185298,10.2733333 33.1253875,10.74 L26.8249774,10.74 C26.8782015,12.9866667 27.8628485,14.5133333 29.9518969,14.5133333 Z M26.8782015,9.58 L30.3510781,9.58 C30.3976492,9.38 30.4242613,9.06 30.4242613,8.66666667 C30.4242613,7.50666667 30.1049163,6.47333333 28.9472908,6.47333333 C27.8628485,6.47333333 27.0711391,7.48666667 26.8782015,9.58 Z" id="Shape"></path>
                        <path d="M41.1289708,14.1933333 C43.4641809,14.1933333 44.9478044,15.3266667 44.9478044,17.6933333 C44.9478044,20.7 41.9672513,21.8133333 38.7205775,21.8133333 C35.7200654,21.8133333 33.5046096,21.12 33.5046096,19.22 C33.5046096,17.8133333 34.615664,17.1733333 36.2855721,16.9266667 L36.2855721,16.8533333 C34.8817848,16.68 34.0967284,15.8666667 34.0967284,14.5866667 C34.0967284,13.3066667 35.0547633,12.54 36.4119795,12.2666667 C35.0081922,11.7733333 34.1233405,10.7866667 34.1233405,9.18 C34.1233405,7.00666667 35.7466774,5.33333333 38.8469848,5.33333333 C40.1243647,5.33333333 41.6279473,5.58 42.7855728,6.14666667 C42.6857775,6 42.6392063,5.8 42.6392063,5.55333333 C42.6392063,4.76666667 43.2313251,4.27333333 43.9964225,4.27333333 C44.7814788,4.27333333 45.3536386,4.81333333 45.3536386,5.68 C45.3536386,6.62 44.7415607,7.13333333 43.850056,7.13333333 C43.2113661,7.13333333 42.6192473,6.88666667 41.9073741,6.61333333 L41.9073741,6.86 C42.7722668,7.25333333 43.3577325,8.09333333 43.3577325,9.20666667 C43.3577325,11.5733333 40.9959104,12.6333333 38.8270258,12.6333333 C38.2881311,12.6333333 37.7958077,12.5866667 37.3234432,12.46 C36.8045076,12.6333333 36.4119795,12.9066667 36.4119795,13.4466667 C36.4119795,13.94 36.7047123,14.1866667 37.2968311,14.1866667 L41.1289708,14.1866667 L41.1289708,14.1933333 Z M36.2057358,18.8066667 C36.2057358,20.1133333 37.1637707,20.7333333 38.8669439,20.7333333 C40.8096258,20.7333333 42.2865963,20.1933333 42.2865963,18.64 C42.2865963,17.7 41.7942728,17.1333333 40.3439144,17.1333333 L37.243607,17.1333333 C36.598264,17.4733333 36.2057358,18.02 36.2057358,18.8066667 Z M38.7405365,6.44666667 C37.4831157,6.44666667 37.263566,7.40666667 37.263566,9.01333333 C37.263566,10.5933333 37.4831157,11.5533333 38.7405365,11.5533333 C40.0179164,11.5533333 40.2441191,10.5933333 40.2441191,9.01333333 C40.2441191,7.40666667 40.0179164,6.44666667 38.7405365,6.44666667 Z" id="Shape"></path>
                        <path d="M49.8909983,16.5866667 C46.5644883,16.5866667 44.3756446,14.6866667 44.3756446,10.96 C44.3756446,7.23333333 46.5644883,5.33333333 49.8909983,5.33333333 C53.2175084,5.33333333 55.4063521,7.23333333 55.4063521,10.96 C55.4063521,14.6866667 53.2175084,16.5866667 49.8909983,16.5866667 Z M49.8909983,15.4533333 C51.5409474,15.4533333 51.9866997,13.8266667 51.9866997,10.9666667 C51.9866997,8.10666667 51.5409474,6.48 49.8909983,6.48 C48.2410493,6.48 47.795297,8.10666667 47.795297,10.9666667 C47.795297,13.82 48.2410493,15.4533333 49.8909983,15.4533333 Z" id="Shape"></path>
                        <path d="M68.3265173,15.6266667 L68.0071723,16.34 L62.618226,16.34 L62.618226,15.6466667 L63.629485,15.18 L63.629485,9.8 C63.629485,8.19333333 62.7912045,7.65333333 61.8797407,7.65333333 C61.0414602,7.65333333 60.3761582,8.07333333 59.9370588,8.49333333 L59.9370588,15.1533333 L61.3874172,15.62 L61.0680723,16.3333333 L55.699085,16.3333333 L55.699085,15.64 L56.710344,15.1933333 L56.710344,8.43333333 L55.6791259,6.80666667 L55.6791259,6.53333333 L59.3981642,5.32666667 L59.9170998,5.32666667 L59.8439165,7.47333333 L59.9437118,7.47333333 C60.8285635,6.06666667 62.0593723,5.32666667 63.7093213,5.32666667 C65.5056367,5.32666667 66.8828119,6.58666667 66.8828119,9.1 L66.8828119,15.1466667 L68.3265173,15.6266667 Z" id="Path"></path>
                        <path d="M78.5921274,13.4066667 C78.5921274,12.0733333 77.9002126,11.4333333 76.2768764,10.7933333 L74.507173,10.0533333 C72.6842455,9.31333333 71.6264153,8.08 71.6264153,5.81333333 C71.6264153,2.88 73.8884421,1.59333333 76.2768764,1.59333333 C77.5808683,1.59333333 78.6386986,1.88666667 79.4037959,2.13333333 L80.6079925,1.59333333 L80.8275422,5.68666667 L80.1622402,5.83333333 L78.9780026,4.28 C78.2395173,3.24666667 77.47442,2.7 76.1970401,2.7 C75.0394146,2.7 74.2543583,3.44 74.2543583,4.57333333 C74.2543583,5.70666667 74.7732938,6.37333333 76.2502643,6.96666667 L78.0998039,7.70666667 C80.4150549,8.62 81.426314,9.95333333 81.426314,12.22 C81.426314,15.18 79.1842462,16.5866667 76.5496502,16.5866667 C74.7799469,16.5866667 73.841871,16.14 73.1499569,15.8 L71.8193529,16.5866667 L71.4002126,11.9 L72.1653099,11.7533333 L73.3695066,13.5066667 C74.181175,14.7666667 75.0926388,15.4333333 76.4964261,15.4333333 C77.807071,15.4266667 78.5921274,14.6866667 78.5921274,13.4066667 Z" id="Path"></path>
                        <path d="M81.6192516,6.05333333 L85.5578395,2.67333333 L86.2963248,2.67333333 L86.2963248,5.58666667 L89.5429986,5.58666667 L89.3700201,6.86666667 L86.3162838,6.86666667 L86.3162838,12.6866667 C86.3162838,14.12 86.8551785,14.66 87.8398255,14.66 C88.4785154,14.66 88.9708389,14.5133333 89.662753,14.14 L89.9089147,14.7333333 C89.1438174,15.8933333 87.9130087,16.5866667 86.3362429,16.5866667 C84.4135201,16.5866667 83.0895691,15.6266667 83.0895691,13.1066667 L83.0895691,6.86666667 L81.6125986,6.86666667 L81.6125986,6.05333333 L81.6192516,6.05333333 Z" id="Path"></path>
                        <path d="M99.223143,13.9733333 C99.223143,15.0866667 99.6156712,15.3333333 100.773297,15.2066667 L100.84648,15.7 C100.227749,16.2933333 99.4160806,16.5866667 98.2584551,16.5866667 C97.2006249,16.5866667 96.3157732,16.14 96.1161826,15.0066667 L96.0429994,14.98 C95.5240638,16.0933333 94.3930503,16.5866667 93.0624463,16.5866667 C91.4124973,16.5866667 90.0619342,15.6733333 90.0619342,13.6266667 C90.0619342,11.4533333 91.7850664,10.3933333 94.5194577,10.3933333 C95.0383933,10.3933333 95.6039,10.4933333 95.9964282,10.5933333 L95.9964282,9.65333333 C95.9964282,8.22 95.0849644,7.50666667 93.634606,7.50666667 C92.6033879,7.50666667 91.7384953,7.70666667 90.7072772,8.24666667 L90.4145443,7.53333333 C91.4723745,6.1 93.1688946,5.34 95.1914128,5.34 C97.23389,5.34 99.229796,6.25333333 99.229796,9.26 L99.229796,13.9733333 L99.223143,13.9733333 Z M95.4508806,11.5266667 C94.0005222,11.5266667 93.1622416,11.8933333 93.1622416,13.2066667 C93.1622416,14.12 93.7011362,14.7333333 94.5660289,14.7333333 C95.1049235,14.7333333 95.5506759,14.6066667 95.9964282,14.2133333 L95.9964282,11.5266667 L95.4508806,11.5266667 L95.4508806,11.5266667 Z" id="Shape"></path>
                        <path d="M99.6622423,6.05333333 L103.60083,2.67333333 L104.339316,2.67333333 L104.339316,5.58666667 L107.585989,5.58666667 L107.413011,6.86666667 L104.359275,6.86666667 L104.359275,12.6866667 C104.359275,14.12 104.898169,14.66 105.882816,14.66 C106.521506,14.66 107.01383,14.5133333 107.705744,14.14 L107.951905,14.7333333 C107.186808,15.8933333 105.955999,16.5866667 104.379234,16.5866667 C102.456511,16.5866667 101.13256,15.6266667 101.13256,13.1066667 L101.13256,6.86666667 L99.6555893,6.86666667 L99.6555893,6.05333333 L99.6622423,6.05333333 Z" id="Path"></path>
                        <path d="M114.012807,14.5133333 C115.123861,14.5133333 115.762551,14.24 116.674015,13.5533333 L117.139726,14.0933333 C116.35467,15.8666667 114.851087,16.5866667 112.755386,16.5866667 C109.947812,16.5866667 107.732356,14.7866667 107.732356,11.1133333 C107.732356,7.38666667 110.240544,5.34 113.221097,5.34 C115.636144,5.34 117.306052,6.74666667 117.306052,9.33333333 C117.306052,9.72666667 117.27944,10.2733333 117.186297,10.74 L110.885887,10.74 C110.939112,12.9866667 111.923759,14.5133333 114.012807,14.5133333 Z M110.939112,9.58 L114.411988,9.58 C114.458559,9.38 114.485171,9.06 114.485171,8.66666667 C114.485171,7.50666667 114.165826,6.47333333 113.008201,6.47333333 C111.923759,6.47333333 111.132049,7.48666667 110.939112,9.58 Z" id="Shape"></path>
                        <path d="M132.621304,11.2066667 C132.621304,14.6333333 130.405849,16.5866667 126.986196,16.5866667 C123.586503,16.5866667 121.078314,15.1333333 121.078314,11.3066667 L121.078314,3.19333333 L119.501549,2.62666667 L119.674527,1.84 L125.801959,1.84 L126.001549,2.62666667 L124.424783,3.19333333 L124.424783,11.26 C124.424783,13.8733333 125.609021,14.96 127.598274,14.96 C129.614139,14.96 130.971355,13.7733333 130.971355,11.1866667 L130.971355,3.19333333 L129.101857,2.62666667 L129.301447,1.84 L134.005133,1.84 L134.204723,2.62666667 L132.627957,3.19333333 L132.627957,11.2066667 L132.621304,11.2066667 Z" id="Path"></path>
                        <path d="M146.259996,15.6266667 L145.940651,16.34 L140.551704,16.34 L140.551704,15.6466667 L141.562963,15.18 L141.562963,9.8 C141.562963,8.19333333 140.724683,7.65333333 139.813219,7.65333333 C138.974939,7.65333333 138.309637,8.07333333 137.870537,8.49333333 L137.870537,15.1533333 L139.320896,15.62 L139.001551,16.3333333 L133.632563,16.3333333 L133.632563,15.64 L134.643822,15.1933333 L134.643822,8.43333333 L133.612604,6.80666667 L133.612604,6.53333333 L137.331643,5.32666667 L137.850578,5.32666667 L137.777395,7.47333333 L137.87719,7.47333333 C138.762042,6.06666667 139.992851,5.32666667 141.6428,5.32666667 C143.439115,5.32666667 144.81629,6.58666667 144.81629,9.1 L144.81629,15.1466667 L146.259996,15.6266667 Z" id="Path"></path>
                        <path d="M152.141266,15.6266667 L151.821921,16.34 L146.452933,16.34 L146.452933,15.6466667 L147.464192,15.2 L147.464192,8.44 L146.432974,6.81333333 L146.432974,6.54 L150.152012,5.33333333 L150.690907,5.33333333 L150.690907,15.1533333 L152.141266,15.6266667 Z M149.06757,0.0333333333 C150.178625,0.0333333333 151.063476,0.92 151.063476,2.05333333 C151.063476,3.16666667 150.178625,4.02666667 149.06757,4.02666667 C147.936557,4.02666667 147.071664,3.16666667 147.071664,2.05333333 C147.071664,0.92 147.929904,0.0333333333 149.06757,0.0333333333 Z" id="Shape"></path>
                        <path d="M160.264603,6.89333333 L158.714449,6.42666667 L158.840857,5.58666667 L162.998994,5.58666667 L163.145361,6.4 L162.014347,6.79333333 L158.348533,16.34 L155.913528,16.34 L152.247714,7.08666667 L151.136659,6.34666667 L151.309638,5.58 L156.99797,5.58 L157.170949,6.44666667 L155.594183,6.81333333 L157.097766,11.08 C157.663272,12.7333333 157.862863,13.94 157.862863,13.94 L157.962658,13.94 C157.962658,13.94 158.20882,12.7066667 158.820898,11.0533333 L160.264603,6.89333333 Z" id="Path"></path>
                        <path d="M168.461124,14.5133333 C169.565525,14.5133333 170.210868,14.24 171.122332,13.5533333 L171.588044,14.0933333 C170.802987,15.8666667 169.299405,16.5866667 167.203703,16.5866667 C164.396129,16.5866667 162.180673,14.7866667 162.180673,11.1133333 C162.180673,7.38666667 164.688862,5.34 167.669415,5.34 C170.084461,5.34 171.754369,6.74666667 171.754369,9.33333333 C171.754369,9.72666667 171.727757,10.2733333 171.634615,10.74 L165.334205,10.74 C165.387429,12.9866667 166.372076,14.5133333 168.461124,14.5133333 Z M165.387429,9.58 L168.860305,9.58 C168.906876,9.38 168.933488,9.06 168.933488,8.66666667 C168.933488,7.50666667 168.614144,6.47333333 167.456518,6.47333333 C166.372076,6.47333333 165.580366,7.48666667 165.387429,9.58 Z" id="Shape"></path>
                        <path d="M178.407389,15.5733333 L178.088044,16.34 L172.080367,16.34 L172.080367,15.6466667 L173.091626,15.2 L173.091626,8.46666667 L172.060408,6.84 L172.060408,6.56666667 L175.779446,5.33333333 L176.298382,5.33333333 L176.225199,7.84666667 L176.324994,7.84666667 C176.817317,6.58666667 177.775352,5.33333333 179.405342,5.33333333 C180.709334,5.33333333 181.501044,6.1 181.501044,7.30666667 C181.501044,8.41333333 180.735946,9.10666667 179.804523,9.10666667 C178.746693,9.10666667 178.108003,8.39333333 178.108003,7.38 C177.495925,7.65333333 176.903807,8.22 176.3383,8.96 L176.3383,15.1 L178.407389,15.5733333 Z" id="Path"></path>
                        <path d="M182.073203,12.8133333 C183.377195,14.9866667 184.288659,15.5266667 185.665834,15.5266667 C186.650481,15.5266667 187.362354,15.2066667 187.362354,14.22 C187.362354,13.4333333 186.896643,12.9866667 185.785589,12.64 L184.182211,12.12 C182.485691,11.6 181.547615,10.6133333 181.547615,8.78666667 C181.547615,6.39333333 183.197564,5.33333333 185.413019,5.33333333 C186.2513,5.33333333 187.182723,5.53333333 187.754883,5.82666667 L189.112099,5.36 L189.185282,8.59333333 L188.593163,8.74 C187.608516,7.16 186.67044,6.44666667 185.439632,6.44666667 C184.55478,6.44666667 184.009232,6.91333333 184.009232,7.63333333 C184.009232,8.32666667 184.375148,8.72 185.240041,9.01333333 L187.009744,9.60666667 C189.025609,10.2733333 189.937073,11.3066667 189.937073,13.1866667 C189.937073,15.58 188.260512,16.5933333 185.579345,16.5933333 C184.641269,16.5933333 183.656622,16.3466667 182.944749,16.0266667 L181.667369,16.5933333 L181.394595,12.9666667 L182.073203,12.8133333 Z" id="Path"></path>
                        <path d="M195.984669,15.6266667 L195.665324,16.34 L190.296336,16.34 L190.296336,15.6466667 L191.307595,15.2 L191.307595,8.44 L190.276377,6.81333333 L190.276377,6.54 L193.995415,5.33333333 L194.53431,5.33333333 L194.53431,15.1533333 L195.984669,15.6266667 Z M192.90432,0.0333333333 C194.015375,0.0333333333 194.900226,0.92 194.900226,2.05333333 C194.900226,3.16666667 194.015375,4.02666667 192.90432,4.02666667 C191.773307,4.02666667 190.908414,3.16666667 190.908414,2.05333333 C190.908414,0.92 191.773307,0.0333333333 192.90432,0.0333333333 Z" id="Shape"></path>
                        <path d="M195.412509,6.05333333 L199.351097,2.67333333 L200.089582,2.67333333 L200.089582,5.58666667 L203.336256,5.58666667 L203.163277,6.86666667 L200.109541,6.86666667 L200.109541,12.6866667 C200.109541,14.12 200.648436,14.66 201.633083,14.66 C202.271773,14.66 202.764096,14.5133333 203.45601,14.14 L203.702172,14.7333333 C202.937075,15.8933333 201.706266,16.5866667 200.1295,16.5866667 C198.206777,16.5866667 196.882826,15.6266667 196.882826,13.1066667 L196.882826,6.86666667 L195.405856,6.86666667 L195.405856,6.05333333 L195.412509,6.05333333 Z" id="Path"></path>
                        <path d="M203.269726,7.08666667 L202.165324,6.34666667 L202.338303,5.58 L208.046594,5.58 L208.192961,6.44666667 L206.616195,6.81333333 L208.219573,10.8866667 C208.911487,12.66 208.98467,13.8 208.98467,13.8 L209.084465,13.8 C209.084465,13.8 209.357239,12.54 209.922746,10.8666667 L211.279962,6.89333333 L209.729808,6.42666667 L209.849563,5.58666667 L213.987741,5.58666667 L214.134108,6.4 L213.003094,6.79333333 L209.383851,16.5133333 C208.106471,19.9666667 206.749255,21.72 204.261026,21.72 C202.710872,21.72 202.018958,20.8066667 202.018958,19.72 C202.018958,18.6866667 202.637689,18.02 203.668907,18.02 C204.726737,18.02 205.192448,18.76 205.192448,19.5466667 C205.192448,20.0666667 204.972899,20.3866667 204.79992,20.58 C205.85775,20.48 206.988764,19 207.534312,17.3266667 L203.269726,7.08666667 Z" id="Path"></path>
                    </g>
                    <g>
                        <path d="M71.6197623,32.6133333 C71.0675616,29.4 70.2758522,26.7933333 69.1980629,24.64 C68.2666401,22.7733333 67.1090146,21.2533333 65.7584515,20.12 C63.8689938,18.54 61.5936608,17.7 59.1786145,17.7 C58.027642,17.7 56.9165877,17.8533333 55.8654105,18.16 L59.4181232,10.5466667 L52.1596782,5.38 L46.9304044,5.38 C46.0388997,5.38 45.0675587,4.7 43.830097,3.84666667 C41.6412533,2.33333333 38.6473942,0.253333333 33.5910989,0.253333333 C29.3132069,0.253333333 25.9467787,1.44666667 23.2789176,3.9 C23.2789176,3.9 5.99437118,20.8 5.89457588,20.8933333 L5.89457588,20.8933333 C4.88996983,21.92 4.01177117,23.18 3.27993895,24.64 C2.20214968,26.7933333 1.41044028,29.4066667 0.858239604,32.6133333 C-0.299385908,39.34 -0.073183222,46.0533333 1.5168886,52.04 C3.23336781,58.5 6.37359333,64.6933333 10.8444229,70.46 C16.3065525,77.5066667 23.7845472,83.9066667 33.0588573,89.48 L36.2390009,91.3933333 L39.4191446,89.48 C48.6934547,83.9 56.1714494,77.5 61.633579,70.46 C66.1044085,64.6933333 69.2446341,58.5 70.9611133,52.04 C72.5511851,46.0533333 72.7773878,39.3333333 71.6197623,32.6133333 Z" id="Path" fill="#FFFFFF"></path>
                        <g transform="translate(0.665302, 0.666667)" fill="#000000">
                            <path d="M30.4641794,24.8066667 L20.8239532,24.8066667 L19.9590605,39.3533333 C20.4913022,39.4333333 21.0035847,39.5866667 21.4959082,39.8133333 L30.4641794,24.8066667 Z" id="Path"></path>
                            <path d="M22.9662257,57.7933333 C22.9396136,57.78 22.9130015,57.7666667 22.8863894,57.7533333 L22.8863894,58.9333333 C23.0394089,59.0066667 23.1990814,59.0733333 23.3654069,59.14 C24.1038921,59.44 24.9953968,59.6733333 26.359266,59.6733333 C27.8561955,59.6733333 28.7809653,59.3933333 29.5593687,59.0533333 L29.5593687,57.88 C28.7477002,58.2666667 27.9227257,58.6066667 26.359266,58.6066667 C24.9222136,58.6066667 24.1105451,58.32 23.3654069,57.9733333 C23.2323465,57.9266667 23.0992861,57.86 22.9662257,57.7933333 Z" id="Path"></path>
                            <path d="M23.3654069,62.32 C23.2323465,62.26 23.0992861,62.1933333 22.9662257,62.1333333 C22.9396136,62.12 22.9130015,62.1066667 22.8863894,62.0933333 L22.8863894,63.2733333 C23.0394089,63.3466667 23.1990814,63.4133333 23.3654069,63.48 C24.1038921,63.78 24.9953968,64.0133333 26.359266,64.0133333 C27.4104432,64.0133333 28.1755405,63.8733333 28.8142304,63.6733333 L28.8142304,62.5466667 C28.1954995,62.78 27.4636673,62.9466667 26.359266,62.9466667 C24.9288666,62.9466667 24.1171982,62.66 23.3654069,62.32 Z" id="Path"></path>
                            <path d="M23.3654069,66.64 C23.2323465,66.58 23.0992861,66.5133333 22.9662257,66.4533333 C22.9396136,66.44 22.9130015,66.4266667 22.8863894,66.4133333 L22.8863894,67.5933333 C23.0394089,67.6666667 23.1990814,67.7333333 23.3654069,67.8 C24.1038921,68.1 24.9953968,68.3333333 26.359266,68.3333333 C26.9048136,68.3333333 27.370525,68.2933333 27.7896653,68.2333333 L27.7896653,67.1533333 C27.3838311,67.2266667 26.9181197,67.2733333 26.359266,67.2733333 C24.9288666,67.2733333 24.1171982,66.9866667 23.3654069,66.64 Z" id="Path"></path>
                            <path d="M34.2098298,4.76666667 C35.0081922,4.94 35.7799425,5.2 36.5117748,5.56 C37.243607,5.92 37.9288681,6.36666667 38.6008231,6.86 C39.6054291,7.58666667 40.6166882,8.42666667 41.8075788,9.09333333 L41.8075788,7.29333333 C40.9892573,6.84666667 40.1775889,6.3 39.3260023,5.77333333 C38.580864,5.31333333 37.7958077,4.88 36.9575271,4.54666667 C36.1258996,4.20666667 35.2410479,3.98666667 34.3561962,3.86666667 C33.4713445,3.74666667 32.5798398,3.74 31.7082942,3.81333333 C31.65507,3.82 31.6084989,3.82666667 31.5552747,3.82666667 L31.5552747,4.53333333 C31.6151519,4.53333333 31.6750291,4.52666667 31.7349063,4.52666667 C32.5798398,4.52666667 33.4048143,4.6 34.2098298,4.76666667 Z" id="Path"></path>
                            <path d="M69.9099361,32.1266667 C69.3776945,29.02 68.6125971,26.5066667 67.581379,24.4466667 C66.7164864,22.7133333 65.6453501,21.3066667 64.4078884,20.2666667 C62.7113682,18.8466667 60.6755441,18.0933333 58.5133125,18.0933333 C55.6125957,18.0933333 52.9979588,19.1733333 51.101848,21.1333333 L47.8884393,17.66 L48.4073748,16.54 L52.7784091,16.54 L52.2594735,17.66 L53.9360346,17.66 L57.4022581,10.2266667 L51.1484192,5.77333333 L46.2584493,5.77333333 C45.0342936,5.77333333 43.9365453,5.01333333 42.5527171,4.04666667 C40.3638734,2.53333333 37.6427882,0.646666667 32.9191439,0.646666667 C28.9206787,0.646666667 25.7937592,1.74 23.3321418,4.00666667 L12.2415571,14.8466667 L12.2415571,14.8466667 C12.2415571,14.8466667 6.00767722,20.9466667 5.98771816,20.9666667 C5.06294836,21.9066667 4.2512799,23.0733333 3.56601882,24.44 C2.53480069,26.5 1.77635639,29.0133333 1.23746175,32.12 C0.106448323,38.6933333 0.325997989,45.2533333 1.87615169,51.0866667 C3.5593658,57.4066667 6.63306112,63.4733333 11.0107484,69.1266667 C16.3930417,76.0666667 23.7712411,82.38 32.9324499,87.8866667 L35.5670459,89.4733333 L38.2016419,87.8866667 C47.3628507,82.3733333 54.7410501,76.0666667 60.1233434,69.1266667 C64.5076837,63.4733333 67.581379,57.4066667 69.2579401,51.0866667 C70.8213998,45.26 71.0409495,38.7 69.9099361,32.1266667 Z M24.3766659,5.12 C25.1683754,4.39333333 27.5767687,2.17333333 32.9191439,2.17333333 C37.1704238,2.17333333 39.565511,3.84 41.6878245,5.30666667 C43.2313251,6.38 44.5619292,7.3 46.2584493,7.3 L50.6627487,7.3 L55.4928413,10.7333333 L53.4969353,15.02 L49.1591661,15.02 C48.5271292,14.9733333 47.9083983,14.7466667 47.4160748,14.32 C46.797344,13.8 46.4114688,12.9933333 46.3449386,12.1133333 L45.5798413,12.1133333 C45.5532292,12.6333333 45.6131064,13.1733333 45.7794319,13.6866667 C45.9457574,14.2066667 46.2318372,14.7066667 46.6044064,15.1266667 C46.7707319,15.3133333 46.9570164,15.48 47.1566071,15.6333333 L46.0788178,17.94 L49.0394118,21.14 L46.7906909,21.14 L42.8986741,17.7933333 L41.9938634,17.7933333 L44.8546621,21.14 L39.0997996,21.14 L35.7799425,17.8133333 L33.7973425,17.8133333 C34.1965237,16.92 34.4293794,15.9533333 34.4692976,14.9866667 C34.4759506,14.8066667 34.4759506,14.6333333 34.4759506,14.4533333 L34.4360325,13.92 L34.4160734,13.6533333 L34.3695023,13.3933333 L34.27636,12.8733333 C34.0967284,12.1866667 33.8705257,11.52 33.5245687,10.9066667 C33.1786116,10.3 32.7794304,9.71333333 32.2804539,9.22666667 L32.1008224,9.04 L31.9012318,8.86666667 C31.7681714,8.75333333 31.641764,8.63333333 31.5020506,8.52666667 C31.2159707,8.32666667 30.9431969,8.11333333 30.6371579,7.95333333 C29.7123881,7.4 28.6612109,7.08666667 27.6033807,6.98 C27.2973418,6.94666667 26.9913029,6.93333333 26.691917,6.93333333 L26.691917,7.36666667 L26.691917,7.67333333 C27.9227257,7.72666667 29.1402284,8.07333333 30.1514875,8.75333333 C30.4176083,8.90666667 30.643811,9.10666667 30.8833197,9.29333333 C30.996421,9.39333333 31.1028694,9.5 31.2159707,9.60666667 L31.3822962,9.76666667 L31.5286626,9.94 C31.9411499,10.38 32.2538418,10.9066667 32.5266157,11.4333333 C32.7927365,11.9733333 32.959062,12.5466667 33.0788163,13.1333333 L33.1320405,13.5733333 L33.1586526,13.7933333 L33.1653056,14.0133333 L33.1786116,14.46 C33.1719586,14.6066667 33.1653056,14.7533333 33.1519996,14.9 C33.0455512,16.08 32.5997989,17.2066667 31.9012318,18.14 L31.0030741,19.34 L35.1545586,19.34 L36.9575271,21.1466667 L19.8725713,21.1466667 L19.8725713,14.8533333 L14.4170947,14.8533333 L24.3766659,5.12 Z M16.6924276,27.2866667 C16.1003088,29.6133333 14.1243618,31.2866667 11.7758457,31.5133333 C11.5895612,31.5333333 11.4032766,31.5466667 11.216992,31.5466667 C8.22978597,31.5466667 5.78147454,29.2133333 5.58853695,26.2666667 C5.58188393,26.14 5.56857789,26.0133333 5.56857789,25.8866667 C5.56857789,24.3333333 6.21392085,22.8466667 7.3515873,21.7666667 C7.47134166,21.6533333 12.860288,16.38 12.860288,16.38 L18.3490297,16.38 L18.3490297,21.8 L16.6924276,27.2866667 Z M67.7942757,50.7066667 C66.7896696,54.4866667 65.266128,58.1733333 63.2502629,61.7333333 L63.2502629,61.7333333 C63.1438146,61.9133333 63.0373662,62.1 62.9309179,62.28 C62.8510817,62.4133333 62.7712454,62.5533333 62.6914092,62.6866667 C62.5849609,62.86 62.4785125,63.04 62.3720642,63.2133333 C62.2789219,63.3666667 62.1857796,63.5133333 62.0926374,63.66 C61.9928421,63.82 61.8930468,63.98 61.7865984,64.14 C61.6003139,64.4266667 61.4140293,64.7133333 61.2210917,65 C61.1479085,65.1133333 61.0680723,65.22 60.994889,65.3333333 C60.8485226,65.5466667 60.7088092,65.7533333 60.5624427,65.9666667 C60.4759535,66.0866667 60.3961172,66.2066667 60.309628,66.3266667 C60.1566085,66.54 60.010242,66.7466667 59.8505696,66.96 C59.7773863,67.0666667 59.6975501,67.1666667 59.6243669,67.2733333 C59.3981642,67.58 59.1653085,67.8866667 58.9257998,68.1933333 C58.9257998,68.1933333 58.9191467,68.2 58.9191467,68.2 C58.6995971,68.48 58.4733944,68.7666667 58.2471917,69.0466667 C55.7589621,72.1333333 52.8648984,75.1 49.5716534,77.9133333 C47.143301,79.9933333 44.495399,81.9866667 41.6479063,83.9 C40.2840372,84.8133333 38.8802499,85.7133333 37.4165855,86.5933333 L35.5670459,87.7066667 L35.5670459,87.7066667 L35.5670459,87.7066667 L33.7175063,86.5933333 C24.71597,81.18 17.477484,74.9933333 12.2149451,68.2 C12.0619256,68 11.9155591,67.8 11.7625397,67.6 C11.6627444,67.4666667 11.5562961,67.3333333 11.4565008,67.2 C11.2702162,66.9533333 11.0972377,66.7066667 10.9176061,66.4533333 C10.8577289,66.3666667 10.7911987,66.28 10.7313216,66.1933333 C10.5317309,65.9066667 10.3321403,65.62 10.1325497,65.3333333 C10.0992846,65.2866667 10.0660195,65.2333333 10.0327544,65.1866667 C9.81985779,64.8666667 9.60696114,64.5466667 9.40071752,64.2266667 C9.38741148,64.2066667 9.38075846,64.1933333 9.36745242,64.1733333 C6.59979602,59.8666667 4.58393091,55.3533333 3.34646915,50.7066667 C1.84953961,45.08 1.63664296,38.7466667 2.73439129,32.3866667 C3.09365438,30.3133333 3.55271278,28.5333333 4.12487251,26.9866667 C4.29785104,28.1266667 4.75025641,29.18 5.39559937,30.08 C5.18270272,30.9066667 4.99641816,31.78 4.83009265,32.7466667 C4.57062487,34.26 4.3843403,35.7733333 4.27789198,37.2733333 L14.2973404,41.9666667 C14.4636659,41.7 14.6499504,41.44 14.8628471,41.2 C15.0158666,41.0266667 15.1821921,40.8733333 15.3485176,40.72 L9.29426919,32.8066667 C9.90634705,32.98 10.55169,33.0733333 11.216992,33.0733333 C11.6960095,33.0733333 12.1617209,33.02 12.6207793,32.9333333 L16.7389988,39.82 C17.2246693,39.5933333 17.7436048,39.44 18.2758464,39.36 L17.6637686,29.0466667 C17.8700122,28.62 18.0429907,28.1666667 18.1693981,27.6933333 L19.6330626,22.86 L19.6862867,22.6866667 L51.7738031,22.6866667 L52.0000057,22.4333333 C53.1443252,21.1533333 55.2067615,19.6333333 58.5199655,19.6333333 C60.322934,19.6333333 62.0261072,20.26 63.4432005,21.4466667 C64.5209897,22.3533333 65.4590656,23.5933333 66.2308159,25.14 C67.1955038,27.0666667 67.907377,29.44 68.4196596,32.3933333 C69.5041018,38.7466667 69.2912052,45.08 67.7942757,50.7066667 Z" id="Shape"></path>
                            <path d="M51.0286648,11.2066667 C51.4810702,11.2066667 51.8469863,10.84 51.8469863,10.3866667 C51.8469863,9.93333333 51.4810702,9.56666667 51.0286648,9.56666667 C50.5762594,9.56666667 50.2103433,9.93333333 50.2103433,10.3866667 C50.2103433,10.8333333 50.5762594,11.2066667 51.0286648,11.2066667 Z" id="Path"></path>
                            <path d="M46.3382856,10.8133333 C46.3382856,10.8133333 46.3382856,10.8066667 46.3449386,10.8 C46.3782037,10.6733333 46.6376715,9.70666667 47.6156654,9.54 L47.6156654,8.76 L45.5731882,8.76 L45.5731882,10.8133333 L46.3382856,10.8133333 L46.3382856,10.8133333 Z" id="Path"></path>
                            <path d="M66.3106522,32.7466667 C65.4457595,27.7333333 63.3899763,21.7533333 58.5133125,21.7533333 C55.047089,21.7533333 53.4370581,23.8333333 52.8782044,24.8066667 L35.0547633,24.8066667 L22.8797364,40.72 C23.0327559,40.8533333 23.1791223,41 23.3188357,41.1533333 C23.5649975,41.42 23.7778941,41.7133333 23.9708317,42.0266667 L32.7062472,38.0666667 L31.987721,41.2333333 L24.6294807,43.5733333 C24.7758472,44.12 24.8490304,44.6866667 24.8357243,45.26 C24.5762566,45.2066667 24.3367478,45.14 24.1171982,45.06 C23.8710364,44.9733333 23.6381807,44.8733333 23.405325,44.7666667 C23.2922237,44.7133333 23.1791223,44.66 23.066021,44.6066667 C22.8464713,44.5 22.6269216,44.3933333 22.3874129,44.2933333 C21.8817834,44.08 21.3029706,43.88 20.5511793,43.7666667 C20.444731,43.7533333 20.3382827,43.74 20.2318344,43.7266667 C20.0655089,43.7066667 19.8858773,43.6933333 19.6995928,43.68 C19.5399203,43.6733333 19.3669418,43.6666667 19.1939632,43.6666667 C19.1673511,43.6666667 19.1407391,43.6666667 19.114127,43.6666667 C19.0875149,43.6666667 19.0675558,43.6666667 19.0409438,43.6666667 C18.8679652,43.6666667 18.6949867,43.6733333 18.5353142,43.68 C18.3623357,43.6866667 18.1960102,43.7 18.0363377,43.72 C17.9165834,43.7333333 17.796829,43.7466667 17.6837276,43.7666667 C16.9585484,43.88 16.3930417,44.0666667 15.9073713,44.2733333 C15.6412504,44.3866667 15.4017417,44.5 15.168886,44.6133333 C15.0491317,44.6733333 14.9293773,44.7266667 14.8162759,44.78 C14.5900733,44.8866667 14.3638706,44.98 14.1243618,45.0666667 C13.9048122,45.1466667 13.6719565,45.2133333 13.4124887,45.2666667 C13.4058357,44.6733333 13.4790189,44.08 13.6386914,43.5133333 L4.19140271,40.3733333 C4.19140271,41.48 4.23797386,42.58 4.33111614,43.6666667 C4.33111614,43.6666667 4.33111614,43.6666667 4.32446312,43.6666667 C4.33111614,43.78 4.34442218,43.8866667 4.35772822,43.9933333 C4.37768728,44.22 4.39099332,44.4466667 4.4176054,44.6733333 L4.42425842,44.6733333 C4.44421748,44.84 4.45752352,45.0133333 4.47748258,45.1866667 C4.52405372,45.1866667 4.57062487,45.1866667 4.62384903,45.1866667 C4.75025641,45.1866667 4.87001077,45.1866667 4.98976514,45.1933333 C5.01637722,45.1933333 5.0429893,45.1933333 5.06960138,45.2 C5.16939668,45.2066667 5.26919198,45.2133333 5.36233427,45.22 C5.37564031,45.22 5.38894635,45.22 5.40225239,45.22 C5.62845507,45.24 5.8346987,45.2666667 6.03428931,45.3066667 L6.03428931,45.3066667 C6.80603965,45.4466667 7.33828126,45.7066667 7.93040006,45.9866667 C8.85516986,46.4333333 9.89969403,46.9333333 11.882294,46.9333333 C13.8715471,46.9333333 14.9160712,46.4333333 15.834188,45.9866667 C16.1202679,45.8466667 16.3930417,45.72 16.6857746,45.6066667 C17.2246693,45.3933333 17.8300941,45.24 18.7082928,45.2 C18.794782,45.1933333 18.8879243,45.1933333 18.9810666,45.1933333 C19.0342907,45.1933333 19.0808619,45.1933333 19.134086,45.1933333 C19.1873102,45.1933333 19.2338813,45.1933333 19.2871055,45.1933333 C19.3869008,45.1933333 19.4800431,45.2 19.5731854,45.2 C20.3981599,45.24 20.9902787,45.38 21.5025612,45.5733333 C21.8219062,45.6933333 22.1212921,45.8333333 22.427331,45.9866667 C23.3521008,46.4333333 24.396625,46.9333333 26.385878,46.9333333 C28.3751311,46.9333333 29.4196552,46.4333333 30.3444251,45.9866667 C30.5639747,45.88 30.7768714,45.78 30.996421,45.6866667 L30.66377,47.1533333 L32.0675573,46.8666667 L31.7349063,48.42 C30.9365438,48.6 30.3577311,48.88 29.7855714,49.1533333 C28.9073727,49.5733333 28.0823982,49.9733333 26.3925311,49.9733333 C24.7026639,49.9733333 23.8710364,49.5733333 22.9994908,49.1533333 C22.0547619,48.7 21.0767679,48.2266667 19.1407391,48.2266667 C17.2047102,48.2266667 16.2267162,48.6933333 15.2819874,49.1533333 C14.4037887,49.5733333 13.5788142,49.9733333 11.8889471,49.9733333 C10.1990799,49.9733333 9.36745242,49.5733333 8.49590677,49.1533333 C7.93705308,48.8866667 7.36489334,48.6133333 6.58648998,48.4333333 C6.58648998,48.4333333 6.58648998,48.4333333 6.58648998,48.4333333 C6.54657186,48.4266667 6.50665374,48.42 6.46673562,48.4066667 C6.40685844,48.3933333 6.34698125,48.38 6.28045105,48.3666667 C6.20726783,48.3533333 6.13408461,48.34 6.06090139,48.3333333 C6.01433024,48.3266667 5.9677591,48.32 5.92118796,48.3133333 L5.92118796,48.3133333 C5.64176111,48.2733333 5.33572219,48.2466667 4.99641816,48.24 C5.06960138,48.6 5.14943762,48.96 5.23592688,49.32 C5.46212957,49.3333333 5.66172018,49.36 5.85465776,49.3866667 C5.92784098,49.4 5.99437118,49.4066667 6.06090139,49.42 C6.10747253,49.4266667 6.15404367,49.4333333 6.20061481,49.4466667 C6.30706313,49.4666667 6.41351146,49.4933333 6.51330676,49.52 C6.51995978,49.52 6.53326582,49.5266667 6.53991884,49.5266667 C6.64636716,49.5533333 6.75281549,49.5866667 6.85261079,49.62 C7.2850571,49.76 7.65762623,49.94 8.03684838,50.12 C8.98157725,50.5733333 9.95957121,51.0466667 11.8956001,51.0466667 C13.831629,51.0466667 14.8096229,50.5733333 15.7543518,50.12 C16.6325505,49.7 17.457525,49.3 19.1473921,49.3 C20.8372592,49.3 21.6688867,49.7 22.5470854,50.12 C23.4918143,50.5733333 24.4698082,51.0466667 26.4058371,51.0466667 C28.341866,51.0466667 29.3198599,50.58 30.2645888,50.12 C30.657117,49.9333333 31.0429922,49.7466667 31.5020506,49.6 L30.8101365,52.8 C30.3976492,52.9533333 30.0450391,53.12 29.7057351,53.2866667 C28.8142304,53.7133333 28.0491331,54.0866667 26.4058371,54.0866667 C24.7625411,54.0866667 23.9974438,53.72 23.1059391,53.2866667 C22.1811693,52.84 21.1366451,52.34 19.1473921,52.34 C17.1647921,52.34 16.1136149,52.84 15.1954981,53.2866667 C14.3039934,53.7133333 13.5388961,54.0866667 11.8956001,54.0866667 C10.2589571,54.0866667 9.48720678,53.72 8.59570208,53.2866667 C8.37615241,53.18 8.1432967,53.0733333 7.89713496,52.9666667 C7.89713496,52.9666667 7.89713496,52.9666667 7.89713496,52.9666667 C7.88382892,52.96 7.87052288,52.9533333 7.85056382,52.9466667 C7.81729871,52.9333333 7.79068663,52.92 7.75742153,52.9066667 L7.75742153,52.9066667 C7.29836314,52.72 6.77277455,52.5466667 6.11412555,52.4466667 C6.30041011,53.0066667 6.50000072,53.5666667 6.70624434,54.1266667 L6.69959132,54.1266667 C7.59774905,56.5266667 8.72210946,58.8866667 10.0593665,61.1866667 C10.1192437,61.2933333 10.1791209,61.3933333 10.2389981,61.5 C10.3387934,61.66 10.4319356,61.8266667 10.5317309,61.9866667 C10.6049142,62.1066667 10.6780974,62.2266667 10.7512806,62.3466667 C10.8444229,62.5 10.9442182,62.6533333 11.0440135,62.8066667 C11.1238497,62.9333333 11.210339,63.0666667 11.2901752,63.1933333 C11.3833175,63.34 11.4764598,63.4866667 11.5762551,63.6266667 C11.6693974,63.7666667 11.7625397,63.9066667 11.855682,64.0466667 C11.9488242,64.18 12.0353135,64.3133333 12.1284558,64.4533333 C12.2349041,64.6066667 12.3413524,64.76 12.4478008,64.9133333 C12.53429,65.0333333 12.6141263,65.1533333 12.7006155,65.2733333 C12.8270229,65.4533333 12.9534303,65.6266667 13.0864907,65.8 C13.1596739,65.9 13.2262041,65.9933333 13.2993873,66.0933333 C13.505631,66.3666667 13.7118746,66.64 13.9181182,66.9066667 C19.0209847,73.4866667 26.0598801,79.5 34.8352137,84.78 L35.593658,85.2333333 L36.3521023,84.78 C45.1274359,79.5 52.1663313,73.4866667 57.2691977,66.9066667 C57.2758508,66.9 57.2825038,66.8866667 57.2891568,66.88 C57.6085018,66.4733333 57.9145407,66.06 58.2139266,65.6466667 C58.2538447,65.5933333 58.2937628,65.54 58.3270279,65.4933333 C58.6330669,65.0733333 58.9324528,64.6466667 59.2185326,64.2266667 C59.2451447,64.1933333 59.2651038,64.1533333 59.2917159,64.12 C59.9037937,63.2133333 60.4892595,62.2933333 61.0348072,61.3666667 C62.4585535,58.94 63.6427911,56.4533333 64.5742139,53.9266667 L64.5675609,53.9266667 C64.7471924,53.44 64.9201709,52.9466667 65.0864964,52.4533333 C64.4278474,52.56 63.9022589,52.7266667 63.4432005,52.9133333 L63.4432005,52.9133333 C63.4165884,52.9266667 63.3899763,52.94 63.3567112,52.9466667 C63.3367521,52.9533333 63.3234461,52.96 63.303487,52.9666667 C63.303487,52.9666667 63.303487,52.9666667 63.303487,52.9666667 C63.0573253,53.0733333 62.8244696,53.18 62.6049199,53.2866667 C61.7134152,53.7133333 60.9483179,54.0866667 59.3050219,54.0866667 C57.6683789,54.0866667 56.8966286,53.72 56.0051239,53.2866667 C55.0803541,52.84 54.0358299,52.34 52.0532299,52.34 C50.0639769,52.34 49.0194527,52.84 48.0946829,53.2866667 C47.2031782,53.7133333 46.4380809,54.0866667 44.7947849,54.0866667 C43.1514889,54.0866667 42.3863916,53.72 41.4948869,53.2866667 C41.1555828,53.1266667 40.8029728,52.9533333 40.3904855,52.8 L39.1131057,46.88 L40.5168929,47.1666667 L40.5168929,47.1666667 L40.5168929,47.1666667 L39.6653063,43.4266667 L44.2625433,38.8533333 L47.2963205,41.0866667 L52.0465769,36.28 L56.7968333,41.0866667 L59.8239575,38.86 L65.259475,44.38 L66.6233441,45.7666667 C66.6898743,45.2866667 66.7430985,44.8 66.7896696,44.3133333 L66.7963226,44.3133333 C66.8029757,44.2466667 66.8029757,44.18 66.8096287,44.1133333 C66.8162817,44.0133333 66.8295877,43.9133333 66.8362408,43.8133333 L66.8295877,43.8066667 C67.1223206,40.1933333 66.9559951,36.4866667 66.3106522,32.7466667 Z M57.3822991,33.4533333 L57.4687883,33.18 L59.2118796,33.18 L59.7507743,31.5266667 L60.0368541,31.5266667 L60.5757488,33.18 L62.312187,33.18 L62.3986763,33.4533333 L60.994889,34.4733333 L61.5337837,36.1266667 L61.300928,36.3 L59.8971407,35.28 L58.4933534,36.3 L58.2604977,36.1266667 L58.7993924,34.4733333 L57.3822991,33.4533333 Z M53.6765668,33.2533333 L53.4437111,33.4266667 L52.0399239,32.4066667 L50.6361366,33.4266667 L50.4032809,33.2533333 L50.9421755,31.6 L49.5383883,30.58 L49.6248775,30.3066667 L51.3613158,30.3066667 L51.9002104,28.6533333 L52.1862903,28.6533333 L52.7251849,30.3066667 L54.4616232,30.3066667 L54.5481125,30.58 L53.1443252,31.6 L53.6765668,33.2533333 Z M45.826003,36.1266667 L45.5931473,36.3 L44.1893601,35.28 L42.7855728,36.3 L42.5527171,36.1266667 L43.0916117,34.4733333 L41.6878245,33.4533333 L41.7743137,33.18 L43.510752,33.18 L44.0496466,31.5266667 L44.3357265,31.5266667 L44.8746211,33.18 L46.6110594,33.18 L46.6975487,33.4533333 L45.2937614,34.4733333 L45.826003,36.1266667 Z M39.4524097,55.66 L37.7359305,55.3133333 L37.7359305,55.3133333 L40.0910996,66.6066667 L40.0910996,66.6066667 L40.0910996,66.6066667 L40.0910996,66.6133333 L35.5736989,64.7866667 L31.0562982,66.6133333 L31.0562982,66.6066667 L31.0562982,66.6066667 L33.4181204,55.3133333 L31.7016412,55.6666667 L31.7016412,55.6666667 L31.7016412,55.6666667 L33.943709,44.9266667 L33.943709,44.9266667 L32.64637,45.1933333 L35.4339855,30.2466667 L35.7134123,30.2466667 L38.5010278,45.1933333 L37.2036889,44.9266667 L37.2036889,44.9266667 L39.4524097,55.66 Z M36.4918157,68.0933333 L36.8377728,78.7666667 L34.3029721,78.7666667 L34.6755412,68.0866667 L34.7354184,66.3466667 L35.5736989,65.9333333 L36.4385915,66.36 L36.4918157,68.0933333 Z M33.3848553,71.1666667 L33.3316311,71.8533333 C32.1806586,71.8933333 31.6218049,72.16 30.8766667,72.52 C29.8321425,73.0266667 28.6412519,73.5933333 26.359266,73.5933333 C24.2036874,73.5933333 23.0261029,73.0866667 22.0214968,72.6066667 C21.9616196,72.58 21.9017424,72.5533333 21.8485183,72.52 C21.6888458,72.44 21.5358263,72.3733333 21.3894599,72.3066667 C21.3695008,72.2933333 21.3428887,72.2866667 21.3229297,72.28 C21.1233391,72.1933333 20.9304015,72.12 20.7175048,72.0533333 L21.3495418,71.52 L21.3628478,71.5133333 L21.3894599,71.4933333 L21.5624384,71.3466667 C21.8950894,71.4733333 22.1944753,71.6133333 22.5005143,71.76 C22.6335747,71.82 22.759982,71.8866667 22.8930424,71.9466667 C23.731323,72.3333333 24.6893579,72.6866667 26.3526129,72.6866667 C28.2886418,72.6866667 29.2666358,72.22 30.2113646,71.76 C31.0496452,71.36 31.8480076,70.9733333 33.3915083,70.9466667 L33.3848553,71.1666667 Z M48.2477024,71.94 C48.3807628,71.88 48.5138232,71.8133333 48.6402306,71.7533333 C48.9462695,71.6066667 49.2456554,71.4666667 49.5783064,71.34 L50.42324,72.0533333 C50.1903843,72.12 49.9708346,72.2066667 49.7512849,72.3066667 C49.7313259,72.3133333 49.7047138,72.3266667 49.6847547,72.3333333 C49.5583473,72.3933333 49.43194,72.4533333 49.2922265,72.52 C49.2323493,72.5466667 49.1724722,72.5733333 49.119248,72.6066667 C48.114642,73.0866667 46.9370574,73.6 44.7814788,73.6 C42.4994929,73.6 41.3152553,73.0266667 40.2640781,72.5266667 C39.5122869,72.1666667 38.9534332,71.9 37.7958077,71.86 L37.7425835,71.1733333 L37.7226244,70.9466667 C39.2794312,70.98 40.0777936,71.36 40.9227271,71.76 C41.867456,72.2133333 42.84545,72.6866667 44.7814788,72.6866667 C46.4513869,72.6733333 47.4094218,72.3266667 48.2477024,71.94 Z M30.317813,54.64 C30.337772,54.6333333 30.3510781,54.6266667 30.3643841,54.6133333 L29.7190412,57.6133333 L29.7190412,57.6133333 L29.7190412,57.62 L31.4953975,57.26 L28.9339848,69.2333333 L33.6975472,66.8666667 L33.5777929,68.4733333 L33.4713445,69.8666667 C31.6284579,69.8866667 30.670423,70.3466667 29.7456532,70.7866667 C28.8674546,71.2066667 28.0424801,71.6066667 26.3526129,71.6066667 C24.8024592,71.6066667 23.9774847,71.2733333 23.1791223,70.8933333 C23.1059391,70.86 23.0327559,70.8266667 22.9595726,70.7866667 C22.6202686,70.6266667 22.2743116,70.46 21.8817834,70.3133333 L21.8817834,55.4866667 L21.8352122,55.52 L20.8173002,56.2866667 L20.8173002,70.56 L19.8659183,71.36 C19.8659183,71.36 19.8659183,71.3533333 19.8592652,71.3533333 L19.8592652,66.62 L19.8592652,65.86 L19.8592652,55.7533333 L21.748723,54.3333333 C21.7753351,54.3466667 21.8086002,54.36 21.8352122,54.3733333 C21.9616196,54.4266667 22.088027,54.4866667 22.2144344,54.5466667 C22.2743116,54.5733333 22.3341888,54.6066667 22.3940659,54.6333333 C22.6801458,54.7733333 22.9861847,54.92 23.3254888,55.0533333 C23.3321418,55.06 23.3454478,55.06 23.3521008,55.0666667 C24.0905861,55.3533333 25.0020498,55.5866667 26.3459599,55.5866667 C28.348519,55.5866667 29.3930432,55.08 30.317813,54.64 Z M40.8295849,54.64 C41.7543547,55.0866667 42.7988788,55.5866667 44.7881319,55.5866667 C46.1320419,55.5866667 47.0501587,55.3533333 47.781991,55.0666667 C47.788644,55.06 47.80195,55.06 47.8152561,55.0533333 C48.1545601,54.92 48.453946,54.7733333 48.7466789,54.6333333 C48.7666379,54.6266667 48.779944,54.6133333 48.799903,54.6066667 C48.9728816,54.5266667 49.1392071,54.4466667 49.3055326,54.3733333 C49.3321447,54.36 49.3654098,54.3466667 49.3920218,54.3333333 L51.2814796,55.7533333 L51.2814796,71.3533333 C51.2814796,71.3533333 51.2748265,71.36 51.2748265,71.36 L50.3234447,70.5666667 L50.3234447,56.2933333 L49.2589614,55.4933333 L49.2589614,70.32 C48.8664332,70.4666667 48.5204762,70.6266667 48.1811722,70.7933333 C48.1079889,70.8266667 48.0348057,70.8666667 47.9616225,70.9 C47.1632601,71.28 46.3382856,71.6133333 44.7881319,71.6133333 C43.0982647,71.6133333 42.2666372,71.2133333 41.3950916,70.7933333 C40.4703218,70.3466667 39.5122869,69.8866667 37.6560942,69.8733333 L37.5496459,68.4733333 L37.4232385,66.86 L42.2134131,69.24 L41.880762,67.7 L39.6520003,57.2666667 L41.4283567,57.6266667 L40.7830137,54.62 C40.7963198,54.62 40.8162788,54.6266667 40.8295849,54.64 Z" id="Shape"></path>
                            <path d="M47.781991,59.1466667 C47.9483165,59.08 48.1079889,59.0066667 48.2610084,58.94 L48.2610084,57.76 C48.2343963,57.7733333 48.2077842,57.7866667 48.1811722,57.8 C48.0481118,57.8666667 47.9150514,57.9266667 47.781991,57.9866667 C47.0301997,58.3333333 46.2185312,58.62 44.7881319,58.62 C43.2246721,58.62 42.3996976,58.28 41.5880292,57.8933333 L41.5880292,59.0666667 C42.3664325,59.4066667 43.2912023,59.6866667 44.7881319,59.6866667 C46.152001,59.68 47.0435057,59.4466667 47.781991,59.1466667 Z" id="Path"></path>
                            <path d="M47.781991,62.32 C47.0301997,62.6666667 46.2185312,62.9533333 44.7881319,62.9533333 C43.6903835,62.9533333 42.9585513,62.7866667 42.3331674,62.5533333 L42.3331674,63.68 C42.9652043,63.88 43.7369547,64.02 44.7881319,64.02 C46.158654,64.02 47.0501587,63.7866667 47.781991,63.4866667 C47.9483165,63.42 48.1079889,63.3466667 48.2610084,63.28 L48.2610084,62.1 C48.2343963,62.1133333 48.2077842,62.1266667 48.1811722,62.14 C48.0481118,62.1933333 47.9150514,62.2533333 47.781991,62.32 Z" id="Path"></path>
                            <path d="M47.781991,66.64 C47.0301997,66.9866667 46.2185312,67.2733333 44.7881319,67.2733333 C44.2292782,67.2733333 43.7635668,67.2266667 43.3577325,67.1533333 L43.3577325,68.2333333 C43.7702198,68.3 44.2425842,68.3333333 44.7881319,68.3333333 C46.158654,68.3333333 47.0501587,68.1 47.781991,67.8 C47.9483165,67.7333333 48.1079889,67.66 48.2610084,67.5933333 L48.2610084,66.4133333 C48.2343963,66.4266667 48.2077842,66.44 48.1811722,66.4533333 C48.0481118,66.52 47.9150514,66.58 47.781991,66.64 Z" id="Path"></path>
                            <polygon id="Path" points="9.74667457 27.2933333 10.3454464 27.7066667 16.5726733 19.18 16.5726733 18.0933333 15.5481082 18.0933333"></polygon>
                            <polygon id="Path" points="45.0342936 48.8333333 45.0342936 45.1666667 43.497446 45.1666667 43.497446 46.0533333 44.0030755 46.0533333 44.0030755 48.8333333"></polygon>
                            <path d="M47.9749285,47.8466667 C47.9749285,48.58 48.7001077,48.98 49.3853688,48.98 C50.0706299,48.98 50.7958091,48.5866667 50.7958091,47.8466667 C50.7958091,47.42 50.5696064,47.08 50.1637722,46.9066667 C50.4565051,46.76 50.6494426,46.4466667 50.6494426,46.0933333 C50.6494426,45.36 49.9907937,45.0266667 49.3853688,45.0266667 C48.773291,45.0266667 48.121295,45.36 48.121295,46.0933333 C48.121295,46.4466667 48.3075795,46.7533333 48.6069655,46.9066667 C48.2011312,47.08 47.9749285,47.4133333 47.9749285,47.8466667 Z M49.3853688,46.4666667 C49.1990842,46.4666667 49.0460648,46.3133333 49.0460648,46.12 C49.0460648,45.9266667 49.1990842,45.7733333 49.3853688,45.7733333 C49.5716534,45.7733333 49.7246728,45.9266667 49.7246728,46.12 C49.7180198,46.3133333 49.5716534,46.4666667 49.3853688,46.4666667 Z M49.3853688,48.1066667 C49.1791252,48.1066667 49.0127997,47.9333333 49.0127997,47.7266667 C49.0127997,47.5133333 49.1791252,47.3333333 49.3853688,47.3333333 C49.5916124,47.3333333 49.7579379,47.5066667 49.7579379,47.7266667 C49.7512849,47.94 49.5849594,48.1066667 49.3853688,48.1066667 Z" id="Shape"></path>
                            <path d="M54.727744,45.1666667 L53.9493407,46.1866667 C53.6832199,46.5333333 53.3705279,47.0666667 53.3705279,47.6333333 C53.3705279,48.0066667 53.5634655,48.4 53.8695044,48.6533333 C54.1223192,48.8533333 54.5081944,48.9733333 54.9140286,48.9733333 C55.6724729,48.9733333 56.4974474,48.5333333 56.4974474,47.5733333 C56.4974474,46.94 56.0783071,46.2666667 55.3065568,46.2666667 C55.1868024,46.2666667 55.0737011,46.28 54.9539467,46.32 L55.9252877,45.1666667 L54.727744,45.1666667 L54.727744,45.1666667 Z M54.9007225,47.0733333 C55.1934554,47.0733333 55.4196581,47.3066667 55.4196581,47.6 C55.4196581,47.9 55.1934554,48.14 54.9007225,48.14 C54.6079897,48.14 54.3684809,47.9 54.3684809,47.6 C54.3684809,47.3133333 54.6079897,47.0733333 54.9007225,47.0733333 Z" id="Shape"></path>
                            <path d="M58.8659226,47.8466667 C58.8659226,48.58 59.5911018,48.98 60.2763629,48.98 C60.9616239,48.98 61.6868031,48.5866667 61.6868031,47.8466667 C61.6868031,47.42 61.4606004,47.08 61.0547662,46.9066667 C61.3474991,46.76 61.5404367,46.4466667 61.5404367,46.0933333 C61.5404367,45.36 60.8817877,45.0266667 60.2763629,45.0266667 C59.664285,45.0266667 59.012289,45.36 59.012289,46.0933333 C59.012289,46.4466667 59.1985736,46.7533333 59.4979595,46.9066667 C59.0987783,47.08 58.8659226,47.4133333 58.8659226,47.8466667 Z M60.2830159,46.4666667 C60.0967313,46.4666667 59.9437118,46.3133333 59.9437118,46.12 C59.9437118,45.9266667 60.0967313,45.7733333 60.2830159,45.7733333 C60.4693004,45.7733333 60.6223199,45.9266667 60.6223199,46.12 C60.6156669,46.3133333 60.4693004,46.4666667 60.2830159,46.4666667 Z M60.2830159,48.1066667 C60.0767722,48.1066667 59.9104467,47.9333333 59.9104467,47.7266667 C59.9104467,47.5133333 60.0767722,47.3333333 60.2830159,47.3333333 C60.4892595,47.3333333 60.655585,47.5066667 60.655585,47.7266667 C60.648932,47.94 60.4826065,48.1066667 60.2830159,48.1066667 Z" id="Shape"></path>
                        </g>
                    </g>
                </g>
                <g id="Group" transform="translate(79.000000, 47.000000)" fill="#FFFFFF">
                    <path d="M9.01837748,3.20318182 C10.4559934,3.20318182 11.7405298,3.48 12.8986093,3.78977273 L14.7422185,3.20318182 L14.7422185,8.37704545 L14.0833113,8.52863636 L12.8919536,6.70295455 C11.7338742,4.93659091 10.7355298,4.50159091 9.10490066,4.50159091 C5.69721854,4.50159091 3.88023179,7.38181818 3.88023179,12.6809091 C3.88023179,17.8218182 6.03665563,20.2406818 9.38443709,20.2406818 C11.0749669,20.2406818 12.6390397,19.9638636 14.7355629,18.3490909 L15.4210927,19.3113636 C14.1099338,21.1106818 11.7604967,22.04 9.10490066,22.04 C4.09986755,22.04 0.599006623,18.7247727 0.599006623,12.6875 C0.605662252,6.51840909 4.17307947,3.20318182 9.01837748,3.20318182 Z" id="Path"></path>
                    <path d="M22.342947,22.0334091 C18.4627152,22.0334091 15.9335762,19.5881818 15.9335762,14.9679545 C15.9335762,10.3543182 18.4693709,7.90909091 22.342947,7.90909091 C26.1899007,7.90909091 28.7256954,10.3543182 28.7256954,14.9679545 C28.7256954,19.5881818 26.1965563,22.0334091 22.342947,22.0334091 Z M22.342947,20.735 C24.8121854,20.735 25.7240066,18.415 25.7240066,14.9745455 C25.7240066,11.5340909 24.8188411,9.21409091 22.342947,9.21409091 C19.8404305,9.21409091 18.9352649,11.5340909 18.9352649,14.9745455 C18.9352649,18.415 19.8404305,20.735 22.342947,20.735 Z" id="Shape"></path>
                    <polygon id="Path" points="35.3280795 20.8272727 34.9220861 21.7236364 28.9187086 21.7236364 28.9187086 20.8536364 30.3896026 20.3593182 30.3896026 3.6975 28.5726159 2.27386364 28.5726159 1.93113636 32.6392053 0.632727273 33.1383775 0.632727273 33.1383775 20.2406818"></polygon>
                    <polygon id="Path" points="42.083543 20.8272727 41.6775497 21.7236364 35.6741722 21.7236364 35.6741722 20.8536364 37.1450662 20.3593182 37.1450662 3.6975 35.3280795 2.27386364 35.3280795 1.93113636 39.3946689 0.632727273 39.8938411 0.632727273 39.8938411 20.2406818"></polygon>
                    <path d="M48.5261921,20.0231818 C50.0569868,20.0231818 51.1551656,19.6211364 52.4064238,18.7511364 L52.8124172,19.4629545 C51.6876159,21.1634091 50.0902649,22.0334091 47.6809272,22.0334091 C44.3331457,22.0334091 41.6775497,19.7397727 41.6775497,15.0931818 C41.6775497,10.4795455 44.6193377,7.90909091 48.1201987,7.90909091 C50.9355298,7.90909091 52.9654967,9.6425 52.9654967,12.7731818 C52.9654967,13.2675 52.9322185,13.7947727 52.8057616,14.3813636 L44.2998675,14.3813636 C44.3065232,17.9470455 45.9038742,20.0231818 48.5261921,20.0231818 Z M44.399702,13.05 L50.123543,13.05 C50.1568212,12.8325 50.1568212,12.4304545 50.1568212,12.2129545 C50.1568212,10.2620455 49.3781126,9.24045455 47.7474834,9.24045455 C46.2433113,9.24045455 44.8389735,10.4202273 44.399702,13.05 Z" id="Shape"></path>
                    <path d="M62.2900331,19.5881818 C64.8857285,19.5881818 66.6694371,20.9525 66.6694371,23.5559091 C66.6694371,27.0886364 63.261755,28.5715909 59.2883444,28.5715909 C55.8473841,28.5715909 53.2849669,27.55 53.2849669,25.0388636 C53.2849669,23.2395455 54.4763245,22.2838636 56.5062914,21.7236364 L56.5062914,21.5984091 C55.0021192,21.4138636 54.1901325,20.4515909 54.1901325,19.1531818 C54.1901325,17.8547727 55.1285762,16.8925 56.8457285,16.5827273 C55.2483775,15.9631818 54.1901325,14.7240909 54.1901325,12.7072727 C54.1901325,10.1038636 56.0071192,7.90909091 59.5678808,7.90909091 C61.1918543,7.90909091 62.7293046,8.25181818 64.4131788,9.05590909 C64.2867219,8.83840909 64.2534437,8.58795455 64.2534437,8.31113636 C64.2534437,7.38181818 64.912351,6.85454545 65.7576159,6.85454545 C66.7293377,6.85454545 67.2617881,7.50704545 67.2617881,8.43636364 C67.2617881,9.39863636 66.6694371,10.0445455 65.4448013,10.0445455 C64.7259934,10.0445455 64.0670861,9.89295455 63.0021854,9.45795455 L63.0021854,9.73477273 C63.9406291,10.2290909 64.785894,11.3759091 64.785894,12.7072727 C64.785894,15.7127273 62.0304636,17.0440909 59.5612252,17.0440909 C58.935596,17.0440909 58.3698675,16.9847727 57.8706954,16.8265909 C57.0587086,17.1956818 56.4330795,17.6636364 56.4330795,18.4677273 C56.4330795,19.2388636 56.872351,19.5815909 57.7775166,19.5815909 L62.2900331,19.5815909 L62.2900331,19.5881818 Z M56.0071192,24.7027273 C56.0071192,26.5613636 57.2250993,27.2731818 59.4813576,27.2731818 C62.1702318,27.2731818 64.1735762,26.4690909 64.1735762,24.1754545 C64.1735762,22.7188636 63.3615894,22.0993182 61.6710596,22.0993182 L57.5112914,22.0993182 C56.5395695,22.6265909 56.0071192,23.49 56.0071192,24.7027273 Z M59.474702,9.33931818 C57.5645364,9.33931818 57.0986424,10.5784091 57.0986424,12.5886364 C57.0986424,14.5725 57.5711921,15.8115909 59.474702,15.8115909 C61.4114901,15.8115909 61.8840397,14.5725 61.8840397,12.5886364 C61.8840397,10.5718182 61.4181457,9.33931818 59.474702,9.33931818 Z" id="Shape"></path>
                    <path d="M73.238543,20.0231818 C74.7693377,20.0231818 75.8675166,19.6211364 77.1187748,18.7511364 L77.5247682,19.4629545 C76.3999669,21.1634091 74.8026159,22.0334091 72.3932781,22.0334091 C69.0454967,22.0334091 66.3899007,19.7397727 66.3899007,15.0931818 C66.3899007,10.4795455 69.3316887,7.90909091 72.8325497,7.90909091 C75.6478808,7.90909091 77.6778477,9.6425 77.6778477,12.7731818 C77.6778477,13.2675 77.6445695,13.7947727 77.5247682,14.3813636 L69.0188742,14.3813636 C69.0188742,17.9470455 70.6162252,20.0231818 73.238543,20.0231818 Z M69.112053,13.05 L74.835894,13.05 C74.8691722,12.8325 74.8691722,12.4304545 74.8691722,12.2129545 C74.8691722,10.2620455 74.0838079,9.24045455 72.4598344,9.24045455 C70.9556623,9.24045455 69.5513245,10.4202273 69.112053,13.05 Z" id="Shape"></path>
                    <path d="M88.3201987,22.0334091 C84.4399669,22.0334091 81.9108278,19.5881818 81.9108278,14.9679545 C81.9108278,10.3543182 84.4466225,7.90909091 88.3201987,7.90909091 C92.1671523,7.90909091 94.702947,10.3543182 94.702947,14.9679545 C94.6962914,19.5881818 92.1671523,22.0334091 88.3201987,22.0334091 Z M88.3201987,20.735 C90.7894371,20.735 91.7012583,18.415 91.7012583,14.9745455 C91.7012583,11.5340909 90.7960927,9.21409091 88.3201987,9.21409091 C85.8176821,9.21409091 84.9124804,11.5340909 84.9124804,14.9745455 C84.9058609,18.415 85.8176821,20.735 88.3201987,20.735 Z" id="Shape"></path>
                    <path d="M102.237119,20.7943182 L101.831126,21.7236364 L95.2021192,21.7236364 L95.2021192,20.8536364 L96.6730132,20.3593182 L96.6730132,9.67545455 L94.3901325,9.67545455 L94.3901325,8.62090909 L96.6730132,8.12659091 L96.6730132,7.28954545 C96.6730132,2.76818182 99.3019868,0.441590909 102.583212,0.441590909 C104.366921,0.441590909 106.084073,1.09409091 106.084073,2.86045455 C106.084073,3.915 105.365265,4.65977273 104.393543,4.65977273 C103.488377,4.65977273 102.703013,4.09954545 102.703013,3.11090909 C102.703013,2.45840909 102.98255,1.90477273 103.361921,1.62136364 C103.015828,1.52909091 102.796192,1.49613636 102.456755,1.49613636 C100.426788,1.49613636 99.4217881,3.10431818 99.4217881,6.10977273 L99.4217881,8.21886364 L103.235464,8.21886364 L102.98255,9.67545455 L99.4151325,9.67545455 L99.4151325,20.2406818 L102.237119,20.7943182 Z" id="Path"></path>
                    <path d="M117.784669,11.9690909 L117.784669,12.0943182 C120.659901,12.4634091 122.663245,13.92 122.663245,16.7738636 C122.663245,20.3329545 119.535099,21.7302273 116.094139,21.7302273 L108.400232,21.7302273 L108.147318,20.7415909 L110.490099,20.0297727 L110.490099,5.22659091 L108.147318,4.51477273 L108.400232,3.52613636 L115.062517,3.52613636 C119.501821,3.52613636 121.631623,5.075 121.631623,8.08045455 C121.631623,9.89295455 120.194007,11.7845455 117.784669,11.9690909 Z M113.371987,11.5340909 L115.435232,11.5340909 C117.405298,11.5340909 118.623278,10.4202273 118.623278,8.27818182 C118.623278,6.10977273 117.684834,4.83772727 114.683146,4.83772727 L113.371987,4.83772727 L113.371987,11.5340909 Z M113.371987,12.8984091 L113.371987,20.0231818 L114.716424,20.3922727 L115.501788,20.3922727 C118.663212,20.3922727 119.754735,19.0279545 119.754735,16.4904545 C119.754735,14.3220455 118.130762,12.8984091 115.781325,12.8984091 L113.371987,12.8984091 Z" id="Shape"></path>
                    <path d="M130.982781,9.67545455 L130.982781,9.33272727 L134.736556,7.90909091 L135.235728,7.90909091 L135.235728,19.5881818 L136.926258,20.7679545 L136.926258,21.1106818 L132.892947,22.04 L132.613411,19.8122727 L132.486954,19.8122727 C131.455331,21.4863636 129.611722,22.04 128.16745,22.04 C126.164106,22.04 124.227318,20.8931818 124.227318,17.7361364 L124.227318,11.3561364 L122.723146,9.68204545 L122.723146,9.33931818 L126.476921,7.91568182 L126.976093,7.91568182 L126.976093,17.1429545 C126.976093,19.3113636 127.974437,20.1484091 129.352152,20.1484091 C130.476954,20.1484091 131.575132,19.6540909 132.480298,18.6588636 L132.480298,11.3495455 L130.982781,9.67545455 Z" id="Path"></path>
                    <path d="M138.024437,17.3604545 C139.335596,20.1484091 140.560232,20.8602273 142.244106,20.8602273 C143.648444,20.8602273 144.586887,20.3659091 144.586887,18.9093182 C144.586887,17.7295455 143.901358,17.0836364 142.337285,16.5563636 L140.553576,15.9368182 C138.676689,15.2843182 137.458709,14.1375 137.458709,11.8504545 C137.458709,9.18772727 139.395497,7.91568182 142.02447,7.91568182 C142.650099,7.91568182 143.901358,8.13318182 144.526987,8.47590909 L146.031159,7.94863636 L146.284073,11.9163636 L145.625166,12.1338636 C144.280728,9.84022727 143.18255,9.19431818 141.838113,9.19431818 C140.526954,9.19431818 139.708311,9.93909091 139.708311,11.0529545 C139.708311,12.1668182 140.27404,12.8786364 141.804834,13.4059091 L143.588543,13.9925 C145.651788,14.7043182 146.936325,15.7918182 146.936325,18.1447727 C146.936325,20.8997727 144.839801,22.0465909 142.057748,22.0465909 C140.773212,22.0465909 139.714967,21.6775 138.962881,21.3347727 L137.558543,22.0465909 L137.279007,17.5845455 L138.024437,17.3604545 Z" id="Path"></path>
                    <path d="M154.257517,20.8272727 L153.851523,21.7236364 L147.848146,21.7236364 L147.848146,20.8536364 L149.31904,20.3593182 L149.31904,11.3429545 L147.814868,9.66886364 L147.814868,9.32613636 L151.568642,7.9025 L152.067815,7.9025 L152.067815,20.2275 L154.257517,20.8272727 Z M150.663477,1.93113636 C151.755,1.93113636 152.600265,2.76818182 152.600265,3.84909091 C152.600265,4.93 151.755,5.76704545 150.663477,5.76704545 C149.565298,5.76704545 148.726689,4.93 148.726689,3.84909091 C148.720033,2.76818182 149.565298,1.93113636 150.663477,1.93113636 Z" id="Shape"></path>
                    <path d="M169.179437,20.8272727 L168.773444,21.7236364 L162.770066,21.7236364 L162.770066,20.8536364 L164.24096,20.3263636 L164.24096,12.6743182 C164.24096,10.6904545 162.989702,10.2884091 161.924801,10.2884091 C160.673543,10.2884091 159.455563,10.9079545 158.736755,11.5275 L158.736755,20.2340909 L160.926457,20.8206818 L160.520464,21.7170455 L154.517086,21.7170455 L154.517086,20.8470455 L155.98798,20.3527273 L155.98798,11.3363636 L154.483808,9.66227273 L154.483808,9.31954545 L158.237583,7.89590909 L158.710132,7.89590909 L158.603642,10.5454545 L158.730099,10.5454545 C159.981358,8.50227273 161.891523,7.91568182 163.295861,7.91568182 C165.112848,7.91568182 166.989735,8.99659091 166.989735,12.1602273 L166.989735,20.2472727 L169.179437,20.8272727 Z" id="Path"></path>
                    <path d="M175.40245,20.0231818 C176.933245,20.0231818 178.031424,19.6211364 179.282682,18.7511364 L179.688675,19.4629545 C178.563874,21.1634091 176.966523,22.0334091 174.557185,22.0334091 C171.209404,22.0334091 168.553808,19.7397727 168.553808,15.0931818 C168.553808,10.4795455 171.495596,7.90909091 174.996457,7.90909091 C177.811788,7.90909091 179.841755,9.6425 179.841755,12.7731818 C179.841755,13.2675 179.808477,13.7947727 179.688675,14.3813636 L171.182781,14.3813636 C171.182781,17.9470455 172.773477,20.0231818 175.40245,20.0231818 Z M171.27596,13.05 L176.999801,13.05 C177.033079,12.8325 177.033079,12.4304545 177.033079,12.2129545 C177.033079,10.2620455 176.247715,9.24045455 174.623742,9.24045455 C173.11957,9.24045455 171.715232,10.4202273 171.27596,13.05 Z" id="Shape"></path>
                    <path d="M181.286026,17.3604545 C182.597185,20.1484091 183.821821,20.8602273 185.505695,20.8602273 C186.910033,20.8602273 187.848477,20.3659091 187.848477,18.9093182 C187.848477,17.7295455 187.162947,17.0836364 185.598874,16.5563636 L183.815166,15.9368182 C181.938278,15.2843182 180.720298,14.1375 180.720298,11.8504545 C180.720298,9.18772727 182.657086,7.91568182 185.28606,7.91568182 C185.911689,7.91568182 187.162947,8.13318182 187.788576,8.47590909 L189.292748,7.94863636 L189.545662,11.9163636 L188.886755,12.1338636 C187.542318,9.84022727 186.444139,9.19431818 185.099702,9.19431818 C183.788543,9.19431818 182.969901,9.93909091 182.969901,11.0529545 C182.969901,12.1668182 183.535629,12.8786364 185.066424,13.4059091 L186.850132,13.9925 C188.913377,14.7043182 190.197914,15.7918182 190.197914,18.1447727 C190.197914,20.8997727 188.101391,22.0465909 185.319338,22.0465909 C184.034801,22.0465909 182.976556,21.6775 182.22447,21.3347727 L180.820132,22.0465909 L180.540596,17.5845455 L181.286026,17.3604545 Z" id="Path"></path>
                    <path d="M191.795265,17.3604545 C193.106424,20.1484091 194.33106,20.8602273 196.014934,20.8602273 C197.419272,20.8602273 198.357715,20.3659091 198.357715,18.9093182 C198.357715,17.7295455 197.672185,17.0836364 196.108113,16.5563636 L194.324404,15.9368182 C192.447517,15.2843182 191.229536,14.1375 191.229536,11.8504545 C191.229536,9.18772727 193.166325,7.91568182 195.795298,7.91568182 C196.420927,7.91568182 197.672185,8.13318182 198.297815,8.47590909 L199.801987,7.94863636 L200.054901,11.9163636 L199.395993,12.1338636 C198.051556,9.84022727 196.953377,9.19431818 195.60894,9.19431818 C194.297781,9.19431818 193.479139,9.93909091 193.479139,11.0529545 C193.479139,12.1668182 194.044868,12.8786364 195.575662,13.4059091 L197.359371,13.9925 C199.422616,14.7043182 200.707152,15.7918182 200.707152,18.1447727 C200.707152,20.8997727 198.610629,22.0465909 195.828576,22.0465909 C194.54404,22.0465909 193.485795,21.6775 192.733709,21.3347727 L191.329371,22.0465909 L191.049834,17.5845455 L191.795265,17.3604545 Z" id="Path"></path>
                </g>
            </g>
        </g>
    </g>
</svg>