<?xml version="1.0" encoding="UTF-8"?>
<svg width="43px" height="54px" viewBox="0 0 43 54" version="1.1" xmlns="http://www.w3.org/2000/svg" xmlns:xlink="http://www.w3.org/1999/xlink">
    <!-- Generator: Sketch 52.3 (67297) - http://www.bohemiancoding.com/sketch -->
    <title>Crest</title>
    <desc>Created with Sketch.</desc>
    <g id="Symbols" stroke="none" stroke-width="1" fill="none" fill-rule="evenodd">
        <g id="Section-FeaturedPosts" transform="translate(-953.000000, -213.000000)">
            <g id="Top-Posts">
                <g id="Filler" transform="translate(785.000000, 50.000000)">
                    <g id="Crest" transform="translate(168.000000, 163.000000)">
                        <path d="M42.3553139,19.2468613 C42.0273723,17.3485839 41.557927,15.8062336 40.9193869,14.5315182 C40.3671679,13.4286569 39.6809343,12.5299708 38.8803942,11.860292 C37.7609781,10.9245547 36.4133431,10.4302774 34.9825401,10.4302774 C34.3018248,10.4302774 33.642,10.5225109 33.0188321,10.7014599 L35.122073,6.19935766 L30.8229635,3.14579562 L27.7252555,3.14579562 C27.1982628,3.14579562 26.619635,2.74532847 25.8872847,2.23843796 C24.592073,1.34251095 22.8179562,0.115094891 19.8219416,0.115094891 C17.2894599,0.115094891 15.291854,0.819854015 13.7144234,2.26957664 C13.7144234,2.26957664 3.47216058,12.2611533 3.41618978,12.3167299 L3.41579562,12.3167299 C2.82061314,12.9229489 2.29953285,13.6679124 1.86713869,14.5315182 C1.22859854,15.8062336 0.758759124,17.3485839 0.431211679,19.2468613 C-0.255416058,23.222365 -0.119824818,27.193927 0.822613139,30.7323066 C1.83994161,34.5497518 3.69880292,38.2134745 6.34716788,41.6213869 C9.5840146,45.7864818 14.0120146,49.5704234 19.5081898,52.868365 L21.3930657,54 L23.2779416,52.868365 C28.7745109,49.5700292 33.2025109,45.7860876 36.4389635,41.6213869 C39.0877226,38.2134745 40.9465839,34.5497518 41.9635182,30.7323066 C42.9063504,27.193927 43.0415474,23.222365 42.3553139,19.2468613" id="Fill-23" fill="#FFFFFE"></path>
                        <path d="M18.3655182,15.0261898 L12.6521606,15.0261898 L12.1381752,23.6255912 C12.451927,23.6728905 12.7585839,23.7647299 13.0471095,23.8995328 L18.3655182,15.0261898" id="Fill-25" fill="#0A0B09"></path>
                        <path d="M13.9245109,34.5308321 C13.9087445,34.5233431 13.8929781,34.515854 13.8768175,34.508365 L13.8768175,35.2060292 C13.9686569,35.2485985 14.0624672,35.2899854 14.1610073,35.3297956 C14.5985255,35.5063796 15.1251241,35.6459124 15.9367007,35.6459124 C16.8231679,35.6459124 17.3702628,35.4795766 17.8318248,35.2797372 L17.8318248,34.5868029 C17.3529197,34.8142336 16.8637664,35.0152555 15.9367007,35.0152555 C15.0861022,35.0152555 14.604438,34.8457664 14.1610073,34.6423796 C14.0813869,34.6061168 14.0033431,34.5686715 13.9245109,34.5308321" id="Fill-26" fill="#0A0B09"></path>
                        <path d="M14.1610073,37.2040292 C14.0813869,37.1677664 14.0033431,37.1303212 13.9245109,37.0924818 C13.9087445,37.0849927 13.8929781,37.0775036 13.8768175,37.0700146 L13.8768175,37.7676788 C13.9686569,37.8102482 14.0624672,37.851635 14.1610073,37.8914453 C14.5985255,38.0680292 15.1251241,38.207562 15.9367007,38.207562 C16.5590803,38.207562 17.0139416,38.1251825 17.3895766,38.0073285 L17.3895766,37.3396204 C17.022219,37.4775766 16.5874599,37.5772993 15.9367007,37.5772993 C15.0861022,37.5772993 14.604438,37.4074161 14.1610073,37.2040292" id="Fill-27" fill="#0A0B09"></path>
                        <path d="M14.1610073,39.7609489 C14.0813869,39.7246861 14.0033431,39.6872409 13.9245109,39.6494015 C13.9087445,39.6419124 13.8929781,39.6344234 13.8768175,39.6269343 L13.8768175,40.3245985 C13.9686569,40.3671679 14.0624672,40.4085547 14.1610073,40.448365 C14.5985255,40.6249489 15.1251241,40.7644818 15.9367007,40.7644818 C16.2603066,40.7644818 16.5374015,40.7416204 16.7829635,40.703781 L16.7829635,40.0640584 C16.543708,40.1078102 16.2685839,40.134219 15.9367007,40.134219 C15.0861022,40.134219 14.604438,39.9643358 14.1610073,39.7609489" id="Fill-28" fill="#0A0B09"></path>
                        <path d="M20.5846423,3.17929927 C21.0592117,3.28059854 21.5168321,3.43550365 21.9472555,3.64953285 C22.3792555,3.86237956 22.7852409,4.12725547 23.1861022,4.41932847 C23.7801022,4.84856934 24.3804088,5.346 25.085562,5.7389781 L25.085562,4.67316788 C24.6015328,4.40750365 24.1198686,4.08665693 23.6161314,3.77448175 C23.175854,3.50251095 22.709562,3.24591241 22.2144964,3.04764964 C21.720219,2.84781022 21.1983504,2.7149781 20.6749051,2.64521168 C20.1510657,2.57583942 19.6232847,2.57150365 19.1077226,2.61328467 C19.0777664,2.61525547 19.0478102,2.61919708 19.017854,2.6219562 L19.017854,3.03937226 C19.0529343,3.03937226 19.0884088,3.03740146 19.1234891,3.03740146 C19.6197372,3.03543066 20.1096788,3.07839416 20.5846423,3.17929927" id="Fill-29" fill="#0A0B09"></path>
                        <path d="M40.4842336,30.338146 C39.8890511,32.5714599 38.9868175,34.7523504 37.7909343,36.857562 L37.7909343,36.8579562 C37.7294453,36.9659562 37.6659854,37.073562 37.6033139,37.1811679 C37.5560146,37.2619708 37.5087153,37.3427737 37.4610219,37.4231825 C37.3991387,37.5268467 37.3364672,37.6305109 37.2730073,37.733781 C37.2186131,37.8224672 37.1630365,37.9111533 37.107854,37.9994453 C37.0479416,38.094438 36.9888175,38.1898248 36.9281168,38.2844234 C36.8185401,38.4550949 36.7073869,38.6253723 36.5938686,38.7948613 C36.5501168,38.8598978 36.5047883,38.9249343 36.4602482,38.990365 C36.3755036,39.1149197 36.290365,39.2394745 36.2032555,39.3632409 C36.1535912,39.4345839 36.1031387,39.5055328 36.052292,39.5764818 C35.9632117,39.7010365 35.8729489,39.8255912 35.7818978,39.950146 C35.7369635,40.0112409 35.6924234,40.0723358 35.6467007,40.1334307 C35.5115036,40.3155328 35.3743358,40.4964526 35.2344088,40.6769781 C35.2328321,40.6785547 35.2316496,40.6801314 35.2304672,40.6821022 C35.1003942,40.8492263 34.9651971,41.0151679 34.8311825,41.1815036 C33.3566277,43.0076496 31.6412409,44.7589051 29.6905401,46.4242336 C28.2514599,47.652438 26.6827007,48.8325547 24.9956934,49.9637956 C24.1872701,50.5057664 23.3540146,51.0374891 22.4904088,51.5558102 L21.3934599,52.2140584 L21.3930657,52.2140584 L20.2961168,51.5558102 C14.9623358,48.3552263 10.6762336,44.6966277 7.55605839,40.6821022 C7.4650073,40.5650365 7.37710949,40.4467883 7.2880292,40.3289343 C7.22811679,40.249708 7.16662774,40.1708759 7.10750365,40.0916496 C6.99910949,39.9454161 6.89347445,39.798 6.78783942,39.6509781 C6.75078832,39.5993431 6.71255474,39.547708 6.67589781,39.496073 C6.55567883,39.3265839 6.4390073,39.1563066 6.32272993,38.9860292 C6.30341606,38.9568613 6.28291971,38.9284818 6.26360584,38.899708 C6.13629197,38.7116934 6.01252555,38.5224964 5.89033577,38.3332993 C5.88363504,38.3226569 5.87654015,38.3124088 5.86983942,38.3017664 C4.23170803,35.7550949 3.03464234,33.0866277 2.30229197,30.338146 C1.41621898,27.0118248 1.29048175,23.2665109 1.93966423,19.5074015 C2.15132847,18.2823504 2.42448175,17.2299416 2.76385401,16.3162774 C2.86830657,16.9910803 3.13278832,17.6134599 3.51630657,18.1443942 C3.39135766,18.6327591 3.28138686,19.1491095 3.18245255,19.7218248 C3.02754745,20.6185401 2.91875912,21.5121022 2.85608759,22.3989635 L8.79017518,25.1718832 C8.88989781,25.0126423 8.99868613,24.8593139 9.1240292,24.719781 C9.21389781,24.6188759 9.31125547,24.5250657 9.41255474,24.4359854 L5.82451095,19.7565109 C6.18674453,19.8574161 6.56829197,19.9125985 6.96205839,19.9125985 C7.24585401,19.9125985 7.52334307,19.8814599 7.79334307,19.827854 L10.2331971,23.8987445 C10.5217226,23.7643358 10.8287737,23.6736788 11.1429197,23.6259854 L10.7783212,17.5275328 C10.9016934,17.2744818 11.0041752,17.007635 11.0763066,16.7262044 L11.9742044,13.7652701 L30.9845693,13.7652701 L31.1189781,13.6158832 C31.7965401,12.8610657 33.0172555,11.9611971 34.9825401,11.9611971 C36.049927,11.9611971 37.0581898,12.3324964 37.898146,13.0348905 C38.5370803,13.5689781 39.0928467,14.3032993 39.5504672,15.2169635 C40.1208175,16.3556934 40.5445401,17.7589051 40.8464672,19.5074015 C41.4956496,23.2665109 41.3703066,27.0118248 40.4842336,30.338146 Z M10.206,16.4940438 C9.8559854,17.8684818 8.68375182,18.8570365 7.29354745,18.9942044 C7.18436496,19.0048467 7.074,19.0119416 6.96205839,19.0119416 C5.19267153,19.0119416 3.74334307,17.6308029 3.62627737,15.8905839 C3.62115328,15.8156934 3.61484672,15.7408029 3.61484672,15.6643358 C3.61484672,14.7475182 3.99639416,13.8685401 4.67119708,13.2280292 C4.74254015,13.1614161 7.93642336,10.0424234 7.93642336,10.0424234 L11.1898248,10.0424234 L11.1898248,13.2481314 L10.206,16.4940438 Z M14.7601314,3.38781022 C15.2287883,2.9569927 16.6552555,1.6460146 19.8219416,1.6460146 C22.3402336,1.6460146 23.7615766,2.62983942 25.0161898,3.49738686 C25.9306423,4.13040876 26.7205401,4.67671533 27.7252555,4.67671533 L30.3345985,4.67671533 L33.1942336,6.70821898 L32.0105693,9.24227737 L29.439854,9.24227737 C29.0657956,9.21626277 28.6972555,9.08145985 28.4055766,8.8299854 C28.0394015,8.52175182 27.8107883,8.0440292 27.7713723,7.52491971 L27.3196642,7.52491971 C27.3038978,7.83315328 27.3389781,8.15124088 27.4387007,8.45632117 C27.5388175,8.76573723 27.7055474,9.05978102 27.9290365,9.30849635 C28.0271825,9.41846715 28.1371533,9.51740146 28.2546131,9.60766423 L27.6176496,10.9710657 L29.3704818,12.8646131 L28.0390073,12.8646131 L25.7347445,10.8875036 L25.198292,10.8875036 L26.8947591,12.8646131 L23.4868467,12.8646131 L21.5188029,10.8961752 L20.3453869,10.8961752 C20.5807007,10.3668175 20.7190511,9.79725547 20.7430949,9.22375182 C20.748219,9.11890511 20.748219,9.01366423 20.7470365,8.90881752 L20.7245693,8.59506569 L20.7127445,8.43858394 L20.6859416,8.28367883 L20.630365,7.97465693 C20.5255182,7.56985401 20.3879562,7.17293431 20.1833869,6.80991241 C19.9780292,6.4500438 19.7403504,6.10554745 19.4447299,5.81662774 L19.3379124,5.70468613 L19.2212409,5.6029927 C19.1428029,5.53637956 19.0671241,5.46621898 18.985927,5.40315328 C18.8176204,5.28451095 18.6552263,5.15837956 18.4731241,5.06259854 C17.9236642,4.73583942 17.3028613,4.54979562 16.6749635,4.48672993 C16.4948321,4.46859854 16.3143066,4.45874453 16.1341752,4.46071533 L16.1341752,4.89705109 C16.8637664,4.92779562 17.5850803,5.13315328 18.185781,5.5340146 C18.3414745,5.62506569 18.4770657,5.74449635 18.6189635,5.85367883 C18.6867591,5.91240876 18.7490365,5.97744526 18.8144672,6.03854015 L18.9114307,6.13116788 L18.9985401,6.23325547 C19.2425255,6.49537226 19.4297518,6.80321168 19.5901752,7.11775182 C19.7494161,7.43544526 19.8463796,7.7779708 19.9189051,8.12128467 L19.9516204,8.38340146 L19.9681752,8.51386861 L19.9709343,8.64551825 L19.9768467,8.90842336 C19.9732993,8.99632117 19.9693577,9.08382482 19.960292,9.17054015 C19.8956496,9.86741606 19.6331387,10.5355182 19.2200584,11.0861606 L18.6867591,11.7968321 L21.1455328,11.7968321 L22.2133139,12.8646131 L12.0904818,12.8646131 L12.0904818,9.14176642 L8.85994161,9.14176642 L14.7601314,3.38781022 Z M41.7341168,19.354073 C41.4172117,17.5172847 40.966292,16.0320876 40.3557372,14.8137372 C39.8425401,13.7889197 39.2099124,12.957635 38.4759854,12.343927 C37.4716642,11.504365 36.2639562,11.0605401 34.9825401,11.0605401 C33.2651825,11.0605401 31.7149489,11.6975036 30.5931679,12.8590949 L28.6901606,10.8035474 L28.9987883,10.1429343 L31.59,10.1429343 L31.2805839,10.8047299 L32.2746569,10.8047299 L34.3282336,6.40865693 L30.6219416,3.77605839 L27.7252555,3.77605839 C27.0015766,3.77605839 26.3516058,3.32632117 25.5285985,2.75675912 C24.2333869,1.86083212 22.6212701,0.745357664 19.8219416,0.745357664 C17.4550073,0.745357664 15.5996934,1.3929635 14.1409051,2.73350365 L7.56985401,9.14176642 L7.56945985,9.14176642 C7.56945985,9.14176642 3.87656934,12.7467591 3.86553285,12.7581898 C3.31883212,13.3151387 2.83677372,14.0025547 2.43039416,14.8137372 C1.82023358,16.0320876 1.36931387,17.5172847 1.0520146,19.354073 C0.381153285,23.2404964 0.512408759,27.1186423 1.43159124,30.5699124 C2.42724088,34.3057664 4.24826277,37.8938102 6.8449927,41.2347153 C10.0337518,45.3375328 14.4034161,49.0702336 19.8325839,52.3279708 L21.3930657,53.2648905 L22.9535474,52.3279708 C28.3827153,49.0702336 32.7527737,45.337927 35.9415328,41.2347153 C38.5378686,37.8938102 40.3592847,34.3057664 41.3545401,30.5699124 C42.2741168,27.1186423 42.4053723,23.2404964 41.7341168,19.354073 Z" id="Fill-30" fill="#0A0B09"></path>
                        <path d="M30.5509927,6.98334307 C30.8198102,6.98334307 31.0373869,6.76576642 31.0373869,6.49694891 C31.0373869,6.22813139 30.8198102,6.01055474 30.5509927,6.01055474 C30.2825693,6.01055474 30.0645985,6.22813139 30.0645985,6.49694891 C30.0645985,6.76576642 30.2825693,6.98334307 30.5509927,6.98334307" id="Fill-31" fill="#0A0B09"></path>
                        <path d="M27.7709781,6.75157664 C27.7709781,6.75157664 27.7713723,6.74842336 27.7729489,6.74329927 C27.7906861,6.6680146 27.9448029,6.09727007 28.5254015,5.99991241 L28.5254015,5.53913869 L27.3145401,5.53913869 L27.3145401,6.75157664 L27.7709781,6.75157664" id="Fill-32" fill="#0A0B09"></path>
                        <path d="M24.5069343,32.6629051 C25.0540292,32.9254161 25.6736496,33.2226131 26.850219,33.2226131 C27.648,33.2226131 28.1891825,33.0858394 28.6255182,32.9163504 C28.6314307,32.9139854 28.6377372,32.9116204 28.6436496,32.9096496 C28.8438832,32.8304234 29.022438,32.7448905 29.1938978,32.6629051 C29.2045401,32.6573869 29.2151825,32.6526569 29.2258248,32.6471387 C29.3267299,32.5990511 29.4256642,32.552146 29.5265693,32.508 C29.5435182,32.5001168 29.5608613,32.4926277 29.5778102,32.4855328 L30.6960438,33.3266715 L30.6960438,42.5500292 C30.6948613,42.5508175 30.6936788,42.552 30.6928905,42.5531825 L30.1300292,42.0821606 L30.1300292,33.6447591 L29.4997664,33.1701898 L29.4997664,41.9347445 C29.268,42.0202774 29.0626423,42.1172409 28.8620146,42.2134161 C28.8186569,42.2343066 28.7752993,42.2551971 28.7319416,42.2756934 C28.2569781,42.500365 27.7686131,42.6978394 26.850219,42.6978394 C25.8474745,42.6978394 25.3571387,42.4625255 24.8380292,42.2134161 C24.2897518,41.9501168 23.7221606,41.6793285 22.6228467,41.6678978 L22.486073,39.8847153 L25.3240292,41.2906861 L23.8076934,34.2095912 L24.8616788,34.4240146 L24.4773723,32.6483212 C24.4872263,32.6530511 24.4970803,32.657781 24.5069343,32.6629051 Z M18.2799854,32.6629051 C18.2898394,32.6581752 18.2996934,32.6534453 18.3095474,32.6487153 L17.9260292,34.4208613 L17.9252409,34.4244088 L18.9792263,34.2095912 L17.4632847,41.290292 L20.2874453,39.8910219 L20.154219,41.6678978 C19.0616058,41.6809051 18.4951971,41.9509051 17.9484964,42.2134161 C17.4293869,42.4625255 16.9390511,42.6978394 15.9367007,42.6978394 C15.0179124,42.6978394 14.5295474,42.500365 14.0549781,42.2756934 C14.0112263,42.2551971 13.9678686,42.2343066 13.9245109,42.2134161 C13.7238832,42.1172409 13.5189197,42.0202774 13.2871533,41.9347445 L13.2871533,33.1701898 L13.2603504,33.190292 L12.6564964,33.6447591 L12.6564964,42.0821606 L12.093635,42.5531825 C12.0928467,42.5523942 12.0916642,42.5512117 12.0908759,42.5504234 L12.0904818,33.3266715 L13.2087153,32.4851387 C13.2260584,32.4926277 13.2430073,32.5001168 13.2603504,32.508 C13.335635,32.5411095 13.4101314,32.5754015 13.4850219,32.6112701 C13.5208905,32.628219 13.5567591,32.645562 13.5934161,32.6629051 C13.7644818,32.7448905 13.9430365,32.8304234 14.1432701,32.9092555 C14.1491825,32.9116204 14.1550949,32.9139854 14.1610073,32.9159562 C14.5977372,33.0858394 15.1389197,33.2226131 15.9367007,33.2226131 C17.1132701,33.2226131 17.7328905,32.9254161 18.2799854,32.6629051 Z M28.9010365,42.8925547 C28.9802628,42.8558978 29.0579124,42.8188467 29.1351679,42.7817956 C29.3164818,42.6946861 29.4950365,42.6103358 29.6909343,42.5366277 L30.1927007,42.9564088 C30.053562,42.9977956 29.925854,43.047854 29.7949927,43.1065839 C29.7823796,43.1121022 29.7693723,43.1184088 29.7567591,43.1243212 C29.6818686,43.158219 29.6057956,43.1944818 29.5245985,43.2335036 C29.4903066,43.2496642 29.4552263,43.2666131 29.4205401,43.2831679 C28.823781,43.5677518 28.1261168,43.8684964 26.850219,43.8684964 C25.4994307,43.8684964 24.795854,43.5310949 24.1750511,43.2331095 C23.7300438,43.0194745 23.3989489,42.8610219 22.7127153,42.8401314 L22.6713285,42.2989489 C23.5940584,42.3170803 24.0670511,42.5429343 24.5652701,42.7817956 C25.1249781,43.0506131 25.704,43.3284964 26.850219,43.3284964 C27.8383796,43.3284964 28.4047883,43.121562 28.9010365,42.8925547 Z M20.0966715,42.4345401 L20.0663212,42.8405255 C19.3852117,42.8622044 19.0552993,43.0202628 18.6114745,43.2331095 C17.9910657,43.5310949 17.2874891,43.8684964 15.9367007,43.8684964 C14.6604088,43.8684964 13.9623504,43.5673577 13.3663796,43.2831679 C13.3312993,43.2666131 13.2966131,43.2500584 13.261927,43.2335036 C13.1669343,43.187781 13.0786423,43.1456058 12.9915328,43.1065839 C12.9781314,43.1002774 12.9647299,43.0947591 12.9517226,43.0888467 C12.8346569,43.038 12.7187737,42.9934599 12.594219,42.9564088 L12.969854,42.6418686 L12.9761606,42.6363504 L12.9915328,42.6237372 L13.0955912,42.5366277 C13.2918832,42.6103358 13.4700438,42.6946861 13.6517518,42.7817956 C13.7286131,42.8188467 13.8062628,42.8558978 13.8854891,42.8925547 C14.3817372,43.121562 14.948146,43.3284964 15.9367007,43.3284964 C17.0825255,43.3284964 17.6615474,43.0506131 18.2212555,42.7817956 C18.7178978,42.5437226 19.189708,42.3182628 20.1069197,42.2993431 L20.0966715,42.4345401 Z M21.9374015,40.6206131 L22.1439416,46.9307299 L20.6433723,46.9307299 L20.8983942,39.5883066 L21.3934599,39.3431387 L21.9038978,39.5961898 L21.9374015,40.6206131 Z M23.6894453,33.266365 L22.6729051,33.0598248 L24.0698102,39.7361168 L24.0702044,39.7380876 L24.0702044,39.7376934 L24.0705985,39.7396642 L21.3934599,38.6600584 L18.7163212,39.7396642 L18.7163212,39.7376934 L18.7163212,39.7380876 L20.1140146,33.0594307 L19.0974745,33.266365 L19.0974745,33.2659708 L20.4265839,26.9144672 L19.6579708,27.0709489 L21.310292,18.2334745 L21.4762336,18.2334745 L23.1289489,27.0709489 L22.3599416,26.9144672 L23.6894453,33.266365 Z M27.4651095,21.720219 L27.3267591,21.8207299 L26.4946861,21.2164818 L25.6626131,21.8207299 L25.5238686,21.720219 L25.8419562,20.7419124 L25.0094891,20.1376642 L25.0627007,19.9744818 L26.0910657,19.9744818 L26.4091533,18.9961752 L26.580219,18.9961752 L26.8983066,19.9744818 L27.9266715,19.9744818 L27.9794891,20.1376642 L27.1474161,20.7419124 L27.4651095,21.720219 Z M32.1181752,20.0205985 L31.9794307,20.1211095 L31.1473577,19.5168613 L30.3152847,20.1211095 L30.1765401,20.0205985 L30.4946277,19.042292 L29.6625547,18.4376496 L29.7153723,18.2748613 L30.7437372,18.2748613 L31.0618248,17.2965547 L31.2328905,17.2965547 L31.5509781,18.2748613 L32.5793431,18.2748613 L32.6321606,18.4376496 L31.8000876,19.042292 L32.1181752,20.0205985 Z M34.3152263,20.1376642 L34.3680438,19.9744818 L35.3964088,19.9744818 L35.7144964,18.9961752 L35.8859562,18.9961752 L36.2036496,19.9744818 L37.2320146,19.9744818 L37.2852263,20.1376642 L36.4531533,20.7419124 L36.7708467,21.720219 L36.6321022,21.8207299 L35.8000292,21.2164818 L34.9679562,21.8207299 L34.8292117,21.720219 L35.1472993,20.7419124 L34.3152263,20.1376642 Z M39.604073,19.7218248 C39.0920584,16.7569489 37.8748905,13.2221168 34.9825401,13.2221168 C32.930146,13.2221168 31.9770657,14.4538686 31.6451825,15.0261898 L21.0836496,15.0261898 L13.8689343,24.4348029 C13.9599854,24.5152117 14.0470949,24.5999562 14.1290803,24.6898248 C14.2753139,24.8474891 14.4026277,25.0213139 14.5149635,25.2053869 L19.6895036,22.8652555 L19.2638102,24.7390949 L14.9047883,26.1233869 C14.9907153,26.4454161 15.0328905,26.7804526 15.0281606,27.1186423 C14.8728613,27.0867153 14.7341168,27.0461168 14.6036496,27 C14.4562336,26.9479708 14.3194599,26.8888467 14.1834745,26.825781 C14.1168613,26.7946423 14.0506423,26.7631095 13.9832409,26.7303942 C13.8547445,26.6689051 13.7219124,26.6054453 13.5792263,26.5443504 C13.2808467,26.4162482 12.9367445,26.2991825 12.4913431,26.2313869 C12.429854,26.2223212 12.3667883,26.2136496 12.3013577,26.2065547 C12.2012409,26.1951241 12.096,26.1864526 11.9852409,26.1805401 C11.8894599,26.1754161 11.7897372,26.1718686 11.6856788,26.1714745 C11.6699124,26.1710803 11.6553285,26.1706861 11.639562,26.1706861 C11.6241898,26.1706861 11.6103942,26.1710803 11.5950219,26.1714745 C11.4909635,26.1718686 11.3912409,26.1750219 11.2954599,26.1805401 C11.1921898,26.1860584 11.0932555,26.1935474 10.9990511,26.2037956 C10.9265255,26.2116788 10.8567591,26.2211387 10.7893577,26.2313869 C10.3609051,26.2964234 10.0258686,26.4071825 9.73537226,26.5293723 C9.57928467,26.5948029 9.43541606,26.663781 9.29667153,26.7303942 C9.22611679,26.764292 9.15674453,26.7977956 9.08737226,26.8297226 C8.95454015,26.8912117 8.82131387,26.9487591 8.67783942,26.9996058 C8.54737226,27.0457226 8.4090219,27.085927 8.25451095,27.1182482 C8.2489927,26.7654745 8.29550365,26.4166423 8.38931387,26.0823942 L2.79262774,24.2251095 C2.7930219,24.8802044 2.82140146,25.529781 2.87382482,26.1734453 C2.8730365,26.1734453 2.87185401,26.1734453 2.87106569,26.1734453 C2.87658394,26.2388759 2.88486131,26.3027299 2.89077372,26.3677664 C2.90259854,26.5025693 2.91205839,26.6377664 2.92624818,26.7713869 L2.9309781,26.7709927 C2.9420146,26.8711095 2.94950365,26.9728029 2.96132847,27.0725255 C2.98970803,27.0721314 3.01729927,27.0713431 3.04646715,27.0713431 C3.12214599,27.0713431 3.19348905,27.0729197 3.26325547,27.0756788 C3.27862774,27.076073 3.294,27.0768613 3.30937226,27.0776496 C3.36928467,27.0804088 3.42722628,27.0839562 3.48319708,27.0886861 C3.49029197,27.0890803 3.49778102,27.0894745 3.50527007,27.0902628 C3.64007299,27.1020876 3.76344526,27.1186423 3.87814599,27.139927 L3.87814599,27.1395328 C4.33379562,27.2234891 4.65188321,27.3752409 5.00032117,27.5427591 C5.5470219,27.8048759 6.16664234,28.1024672 7.34321168,28.1024672 C8.51978102,28.1024672 9.13979562,27.8048759 9.68649635,27.5427591 C9.85480292,27.461562 10.0160146,27.3847007 10.1890511,27.3165109 C10.5075328,27.1919562 10.8677956,27.0997226 11.3869051,27.0772555 C11.4389343,27.0748905 11.4925401,27.0733139 11.5477226,27.0725255 C11.5784672,27.0721314 11.6080292,27.0713431 11.639562,27.0713431 C11.6707007,27.0713431 11.6994745,27.0721314 11.7294307,27.0725255 C11.7881606,27.0733139 11.8449197,27.0752847 11.9001022,27.0776496 C12.390438,27.0997226 12.7384818,27.184073 13.0443504,27.2991679 C13.2351241,27.3709051 13.4101314,27.4544672 13.5934161,27.5427591 C14.1401168,27.8048759 14.7601314,28.1024672 15.9367007,28.1024672 C17.1132701,28.1024672 17.7332847,27.8048759 18.2799854,27.5427591 C18.4104526,27.4796934 18.5369781,27.4193869 18.6674453,27.3638102 L18.470365,28.232146 L19.3020438,28.0626569 L19.1033869,28.9794745 C18.6319708,29.0851095 18.286292,29.2502628 17.9484964,29.4122628 C17.4293869,29.6613723 16.9390511,29.8966861 15.9367007,29.8966861 C14.9343504,29.8966861 14.4436204,29.6613723 13.9245109,29.4122628 C13.3648029,29.1438394 12.7853869,28.865562 11.639562,28.865562 C10.4937372,28.865562 9.91510949,29.1434453 9.3550073,29.4122628 C8.83589781,29.6613723 8.34556204,29.8966861 7.34321168,29.8966861 C6.34086131,29.8966861 5.85052555,29.6613723 5.33181022,29.4122628 C5.00189781,29.2542044 4.66173723,29.0925985 4.20056934,28.9861752 C4.20056934,28.9861752 4.20017518,28.9853869 4.20017518,28.9849927 C4.17691971,28.9794745 4.15129927,28.9751387 4.12764964,28.9700146 C4.0909927,28.9625255 4.05472993,28.9546423 4.01649635,28.9475474 C3.97471533,28.9396642 3.93056934,28.9333577 3.88642336,28.9262628 C3.8580438,28.921927 3.83163504,28.9168029 3.80246715,28.9128613 L3.80246715,28.9136496 C3.63534307,28.8911825 3.45442336,28.8750219 3.25340146,28.8687153 C3.29794161,29.0831387 3.34524088,29.2955912 3.39608759,29.5068613 C3.52852555,29.5147445 3.64992701,29.5285401 3.76423358,29.5454891 C3.80562044,29.5514015 3.84582482,29.5584964 3.88524088,29.5655912 C3.91322628,29.5707153 3.942,29.5754453 3.96880292,29.5809635 C4.03265693,29.5939708 4.09493431,29.6081606 4.15445255,29.6235328 C4.16036496,29.6251095 4.16588321,29.6270803 4.17179562,29.6286569 C4.2360438,29.6456058 4.29753285,29.6641314 4.35744526,29.6838394 C4.61325547,29.7681898 4.83319708,29.8722482 5.05865693,29.9806423 C5.61875912,30.2494599 6.19738686,30.5273431 7.34321168,30.5273431 C8.4890365,30.5273431 9.06805839,30.2494599 9.62816058,29.9806423 C10.1468759,29.7315328 10.6372117,29.496219 11.639562,29.496219 C12.6423066,29.496219 13.1326423,29.7315328 13.6517518,29.9806423 C14.2114599,30.2494599 14.7904818,30.5273431 15.9367007,30.5273431 C17.0825255,30.5273431 17.6615474,30.2494599 18.2212555,29.9806423 C18.4545985,29.8687007 18.6824234,29.7599124 18.9532117,29.6735912 L18.544073,31.5651679 C18.3004818,31.6542482 18.0903942,31.7547591 17.8901606,31.8509343 C17.3631679,32.1035912 16.9083066,32.3219562 15.9367007,32.3219562 C14.9650949,32.3219562 14.5098394,32.1035912 13.9832409,31.8509343 C13.436146,31.5884234 12.8165255,31.2908321 11.639562,31.2908321 C10.4629927,31.2908321 9.84337226,31.5884234 9.29667153,31.8509343 C8.76967883,32.1035912 8.31481752,32.3219562 7.34321168,32.3219562 C6.372,32.3219562 5.91674453,32.1035912 5.39014599,31.8509343 C5.25849635,31.7874745 5.12132847,31.7232263 4.97588321,31.6609489 C4.97548905,31.6605547 4.97548905,31.6601606 4.97509489,31.6597664 C4.96721168,31.656219 4.95775182,31.6530657 4.94947445,31.6495182 C4.93094891,31.641635 4.914,31.6337518 4.89547445,31.6258686 L4.89468613,31.6278394 C4.62192701,31.5166861 4.31132847,31.4165693 3.91992701,31.3550803 C4.02910949,31.6877518 4.14656934,32.0192409 4.26994161,32.3491533 L4.2679708,32.3499416 C4.79851095,33.7673431 5.4650365,35.1626715 6.25966423,36.5244964 C6.29553285,36.5863796 6.3310073,36.6482628 6.36766423,36.710146 C6.42481752,36.8067153 6.48354745,36.9024964 6.54227737,36.9986715 C6.58563504,37.0700146 6.62859854,37.1409635 6.67274453,37.2119124 C6.72910949,37.3029635 6.78665693,37.3940146 6.84459854,37.4846715 C6.89308029,37.5611387 6.94156204,37.6372117 6.99122628,37.7136788 C7.04680292,37.7996058 7.10316788,37.8855328 7.16032117,37.9714599 C7.21471533,38.0534453 7.26989781,38.1358248 7.32547445,38.2178102 C7.37908029,38.2974307 7.43347445,38.3770511 7.48826277,38.4562774 C7.55054015,38.5469343 7.61439416,38.6375912 7.67824818,38.727854 C7.72870073,38.7991971 7.77875912,38.8705401 7.82960584,38.9414891 C7.90489051,39.0459416 7.98135766,39.15 8.05782482,39.2540584 C8.1,39.3112117 8.14178102,39.368365 8.18435036,39.4255182 C8.3049635,39.5871241 8.42715328,39.7479416 8.55170803,39.908365 C11.575708,43.7991241 15.7455328,47.3544526 20.9449051,50.4746277 L21.3930657,50.7434453 L21.8412263,50.4746277 C27.0405985,47.3544526 31.2108175,43.7991241 34.2344234,39.908365 C34.2387591,39.9028467 34.2423066,39.8977226 34.2466423,39.8922044 C34.4346569,39.6501898 34.6171533,39.4065985 34.7961022,39.162219 C34.8185693,39.1314745 34.8414307,39.1007299 34.8635036,39.0699854 C35.0444234,38.8208759 35.220219,38.5705839 35.3916788,38.3191095 C35.4062628,38.2978248 35.4208467,38.2765401 35.4350365,38.2552555 C35.799635,37.7188029 36.1445255,37.176438 36.4673431,36.6281606 C37.311635,35.1945985 38.0128467,33.7231971 38.5634891,32.2277518 L38.5611241,32.2265693 C38.6679416,31.9372555 38.7708175,31.6467591 38.8665985,31.3550803 C38.4751971,31.4165693 38.1645985,31.5166861 37.8922336,31.6278394 L37.8914453,31.6258686 C37.8744964,31.6329635 37.8591241,31.6404526 37.8421752,31.6475474 C37.8323212,31.6518832 37.8212847,31.6558248 37.8110365,31.6601606 C37.8110365,31.6605547 37.8106423,31.6609489 37.8106423,31.6613431 C37.6655912,31.7236204 37.5280292,31.7878686 37.3967737,31.8509343 C36.8701752,32.1035912 36.4153139,32.3219562 35.443708,32.3219562 C34.4721022,32.3219562 34.0172409,32.1035912 33.4906423,31.8509343 C32.9435474,31.5884234 32.323927,31.2908321 31.1473577,31.2908321 C29.9703942,31.2908321 29.3507737,31.5884234 28.804073,31.8509343 C28.2770803,32.1035912 27.822219,32.3219562 26.850219,32.3219562 C25.8786131,32.3219562 25.4237518,32.1035912 24.8967591,31.8509343 C24.6965255,31.7547591 24.486438,31.6542482 24.2428467,31.5647737 L23.4848759,28.0626569 L24.3161606,28.232146 L24.3165547,28.232146 L23.8136058,26.0193285 L26.538438,23.3165693 L28.3346277,24.6366131 L31.1473577,21.7955036 L33.9600876,24.6366131 L35.7527299,23.3193285 L39.7822336,27.4044088 C39.8204672,27.1206131 39.8523942,26.8344526 39.8803796,26.5467153 L39.8827445,26.5467153 C39.8866861,26.5069051 39.8886569,26.4667007 39.8922044,26.4268905 C39.8977226,26.3677664 39.9044234,26.3094307 39.9095474,26.2507007 L39.9063942,26.2475474 C40.0845547,24.1238102 39.9852263,21.9307007 39.604073,19.7218248 Z" id="Fill-33" fill="#0A0B09"></path>
                        <path d="M28.6255182,35.3297956 C28.7240584,35.2899854 28.8182628,35.2485985 28.909708,35.2060292 L28.909708,34.508365 C28.8939416,34.515854 28.877781,34.5233431 28.8620146,34.5308321 C28.7831825,34.5686715 28.7051387,34.6061168 28.6255182,34.6423796 C28.1820876,34.8457664 27.7004234,35.0152555 26.850219,35.0152555 C25.9231533,35.0152555 25.434,34.8142336 24.9550949,34.5868029 L24.9550949,35.2797372 C25.4166569,35.4795766 25.9633577,35.6459124 26.850219,35.6459124 C27.6614015,35.6459124 28.1883942,35.5063796 28.6255182,35.3297956" id="Fill-34" fill="#0A0B09"></path>
                        <path d="M28.6255182,37.2040292 C28.1820876,37.4074161 27.7004234,37.5772993 26.850219,37.5772993 C26.1990657,37.5772993 25.7643066,37.4775766 25.3969489,37.3396204 L25.3969489,38.0073285 C25.7729781,38.1251825 26.2274453,38.207562 26.850219,38.207562 C27.6614015,38.207562 28.1883942,38.0680292 28.6255182,37.8914453 C28.7240584,37.851635 28.8182628,37.8102482 28.909708,37.7676788 L28.909708,37.0700146 C28.8939416,37.0775036 28.877781,37.0849927 28.8620146,37.0924818 C28.7831825,37.1303212 28.7051387,37.1677664 28.6255182,37.2040292" id="Fill-35" fill="#0A0B09"></path>
                        <path d="M28.6255182,39.7609489 C28.1820876,39.9643358 27.7004234,40.134219 26.850219,40.134219 C26.5179416,40.134219 26.2428175,40.1078102 26.003562,40.0640584 L26.003562,40.703781 C26.2491241,40.7416204 26.526219,40.7644818 26.850219,40.7644818 C27.6614015,40.7644818 28.1883942,40.6249489 28.6255182,40.448365 C28.7240584,40.4085547 28.8182628,40.3671679 28.909708,40.3245985 L28.909708,39.6269343 C28.8939416,39.6344234 28.877781,39.6419124 28.8620146,39.6494015 C28.7831825,39.6872409 28.7051387,39.7246861 28.6255182,39.7609489" id="Fill-36" fill="#0A0B09"></path>
                        <polyline id="Fill-37" fill="#0A0B09" points="6.09214599 16.4979854 6.44728467 16.74 10.1374161 11.7002628 10.1374161 11.0573869 9.52843796 11.0573869 6.09214599 16.4979854"></polyline>
                        <polyline id="Fill-38" fill="#0A0B09" points="26.9980292 29.2313431 26.9980292 27.0626715 26.0859416 27.0626715 26.0859416 27.5892701 26.3874745 27.5892701 26.3874745 29.2313431 26.9980292 29.2313431"></polyline>
                        <path d="M29.5742628,28.8024964 C29.4532555,28.8024964 29.3543212,28.7011971 29.3543212,28.5770365 C29.3543212,28.4497226 29.4532555,28.3460584 29.5742628,28.3460584 C29.6956642,28.3460584 29.7942044,28.4497226 29.7942044,28.5770365 C29.7942044,28.7011971 29.6956642,28.8024964 29.5742628,28.8024964 Z M29.5742628,27.8332555 C29.4638978,27.8332555 29.3740292,27.7410219 29.3740292,27.6275036 C29.3740292,27.5139854 29.4638978,27.4213577 29.5742628,27.4213577 C29.6846277,27.4213577 29.7744964,27.5139854 29.7744964,27.6275036 C29.7744964,27.7410219 29.6846277,27.8332555 29.5742628,27.8332555 Z M28.7386423,28.6468029 C28.7386423,29.0807737 29.1690657,29.3149051 29.5742628,29.3149051 C29.9794599,29.3149051 30.4102774,29.0807737 30.4102774,28.6468029 C30.4102774,28.3929635 30.2754745,28.1931241 30.0374015,28.089854 C30.2112263,28.0019562 30.323562,27.8178832 30.323562,27.6105547 C30.323562,27.1765839 29.9353139,26.9787153 29.5742628,26.9787153 C29.2136058,26.9787153 28.8253577,27.1765839 28.8253577,27.6105547 C28.8253577,27.8178832 28.9372993,28.0019562 29.1111241,28.089854 C28.8734453,28.1931241 28.7386423,28.3929635 28.7386423,28.6468029 Z" id="Fill-39" fill="#0A0B09"></path>
                        <path d="M32.844219,28.1923358 C33.016073,28.1923358 33.1504818,28.3295036 33.1504818,28.5045109 C33.1504818,28.6826715 33.016073,28.8222044 32.844219,28.8222044 C32.6707883,28.8222044 32.5292847,28.6795182 32.5292847,28.5045109 C32.5292847,28.3322628 32.6707883,28.1923358 32.844219,28.1923358 Z M32.7393723,27.0626715 L32.2774161,27.6669197 C32.120146,27.8722774 31.9329197,28.188 31.9329197,28.5238248 C31.9329197,28.7445547 32.0452555,28.9751387 32.2269635,29.1268905 C32.3775328,29.2463212 32.603781,29.3149051 32.8469781,29.3149051 C33.2978978,29.3149051 33.7831095,29.0559416 33.7831095,28.487562 C33.7831095,28.1135036 33.5351825,27.7161898 33.0759854,27.7161898 C33.003854,27.7161898 32.9368467,27.7256496 32.8686569,27.7457518 L33.4425547,27.0626715 L32.7393723,27.0626715 Z" id="Fill-40" fill="#0A0B09"></path>
                        <path d="M36.030219,28.8024964 C35.9088175,28.8024964 35.8102774,28.7011971 35.8102774,28.5770365 C35.8102774,28.4497226 35.9088175,28.3460584 36.030219,28.3460584 C36.1512263,28.3460584 36.2501606,28.4497226 36.2501606,28.5770365 C36.2501606,28.7011971 36.1512263,28.8024964 36.030219,28.8024964 Z M36.030219,27.8332555 C35.919854,27.8332555 35.8299854,27.7410219 35.8299854,27.6275036 C35.8299854,27.5139854 35.919854,27.4213577 36.030219,27.4213577 C36.1405839,27.4213577 36.2304526,27.5139854 36.2304526,27.6275036 C36.2304526,27.7410219 36.1405839,27.8332555 36.030219,27.8332555 Z M35.1942044,28.6468029 C35.1942044,29.0807737 35.6250219,29.3149051 36.030219,29.3149051 C36.4354161,29.3149051 36.8658394,29.0807737 36.8658394,28.6468029 C36.8658394,28.3929635 36.7310365,28.1931241 36.4933577,28.089854 C36.6667883,28.0019562 36.7795182,27.8178832 36.7795182,27.6105547 C36.7795182,27.1765839 36.3908759,26.9787153 36.030219,26.9787153 C35.6691679,26.9787153 35.2809197,27.1765839 35.2809197,27.6105547 C35.2809197,27.8178832 35.3932555,28.0019562 35.5670803,28.089854 C35.3290073,28.1931241 35.1942044,28.3929635 35.1942044,28.6468029 Z" id="Fill-41" fill="#0A0B09"></path>
                    </g>
                </g>
            </g>
        </g>
    </g>
</svg>